<svg width="144" height="144" viewBox="0 0 144 144" fill="none" xmlns="http://www.w3.org/2000/svg">
<ellipse cx="130.253" cy="22.2202" rx="7.95985" ry="8.06342" fill="#50112E"/>
<ellipse cx="89.1376" cy="10.0348" rx="3.61811" ry="3.66519" fill="#50112E"/>
<ellipse cx="26.7753" cy="8.79646" rx="8.68347" ry="8.79646" fill="#50112E"/>
<ellipse cx="132.424" cy="120.449" rx="5.78898" ry="5.86431" fill="#50112E"/>
<ellipse cx="3.61811" cy="80.1374" rx="3.61811" ry="3.66519" fill="#50112E"/>
<ellipse cx="140.382" cy="68.402" rx="3.61811" ry="3.66519" fill="#50112E"/>
<ellipse cx="33.4179" cy="138.136" rx="5.78898" ry="5.86431" fill="#50112E"/>
<ellipse cx="75.6177" cy="76.8356" rx="58.0826" ry="58.2766" fill="#50112E"/>
<path d="M68.3733 83.5763L59.5337 74.7073L58.4751 73.645L57.4126 74.7035L54.0409 78.0627L52.9781 79.1215L54.0372 80.1842L67.3103 93.5017L68.3728 94.5676L69.4352 93.5017L97.9285 64.9132L98.9839 63.8543L97.9285 62.7954L94.5805 59.4362L93.5186 58.3708L92.4562 59.4357L68.3733 83.5763Z" fill="white" stroke="white" stroke-width="3"/>
</svg>
