<svg width="409" height="544" viewBox="0 0 409 544" fill="none" xmlns="http://www.w3.org/2000/svg">
<path d="M190.117 0L175.069 117.374L104.615 66.6896L148.392 144.715L72.4669 135.379L137.33 175.141L74.3335 160.888L71.7188 170.492L30.3316 322.415L30.2965 322.571C25.0953 344.416 30.5642 364.245 42.1108 378.732C51.4857 390.493 64.4816 398.927 78.7644 403.885L54.2605 506.819C41.7251 504.185 31.4279 502.515 23.3036 502.443C10.1253 502.327 2.55851 506.37 0 517.12L118.815 544C122.951 526.625 107.371 519.365 74.7542 511.456L99.2558 408.521C114.317 410.2 129.797 408.207 143.524 401.675C160.437 393.626 174.305 378.173 179.503 356.33L179.541 356.172L206.738 222.959L228.386 325.499L228.425 325.655C233.77 347.465 247.743 362.831 264.708 370.772C278.479 377.217 293.97 379.111 309.02 377.336L334.211 480.114C301.648 488.229 286.117 495.588 290.369 512.936L409 485.299C406.369 474.565 398.776 470.573 385.598 470.773C377.475 470.896 367.188 472.63 354.672 475.344L329.481 372.568C343.728 367.52 356.667 359.002 365.962 347.183C377.412 332.623 382.749 312.759 377.404 290.949L377.364 290.79L332.281 129.548L286.573 140.198L344.709 102.701L259.891 125.373L296.827 30.0112L225.005 112.037L190.117 0ZM317.347 154.116L335.388 218.645L225.012 207.79L218.54 177.133L317.347 154.116ZM89.4355 185.359L188.393 207.748L185.617 221.34L76.4829 232.906L89.4355 185.359ZM229.457 228.838L248.491 230.71C252.612 254.963 264.161 316.697 277.074 328.542C289.818 340.234 329.483 331.5 329.483 331.5C286.389 334.771 261.8 270.079 249.878 230.846L341.314 239.839L356.954 295.775C360.939 312.098 357.228 324.581 349.267 334.705C341.297 344.841 328.488 352.316 314.5 355.575C300.513 358.834 285.62 357.813 273.812 352.285C262.021 346.766 252.923 337.269 248.906 320.962L229.457 228.838ZM181.314 242.428L158.992 351.76C155.085 368.095 146.05 377.652 134.295 383.245C122.523 388.847 107.64 389.965 93.6315 386.795C79.6223 383.626 66.762 376.232 58.7241 366.148C50.6979 356.077 46.9028 343.619 50.7763 327.274L70.6961 254.15L93.4025 251.744C84.1152 277.941 66.887 330.344 71.9129 345.535C77.2835 361.773 116.343 372.796 116.343 372.796C75.1481 349.299 85.6697 289.83 95.1077 251.564L181.314 242.428Z" fill="#CC9900" fill-opacity="0.25"/>
</svg>
