<svg width="579" height="2956" viewBox="0 0 579 2956" fill="none" xmlns="http://www.w3.org/2000/svg">
<path d="M130.531 0.288086L99.6988 637.894L-44.6548 362.564L45.0408 786.419L-110.523 735.704L22.3745 951.701L-106.698 874.276L-112.055 926.446L-196.854 1751.74L-196.925 1752.58C-207.582 1871.25 -196.377 1978.97 -172.719 2057.66C-153.511 2121.55 -126.884 2167.37 -97.6197 2194.3L-147.826 2753.47C-173.51 2739.16 -194.607 2730.09 -211.253 2729.7C-238.254 2729.07 -253.758 2751.03 -259 2809.43L-15.5609 2955.45C-7.08586 2861.06 -39.008 2821.62 -105.836 2778.66L-55.6348 2219.48C-24.776 2228.61 6.94022 2217.78 35.0667 2182.29C69.7188 2138.57 98.1326 2054.63 108.784 1935.97L108.861 1935.11L164.585 1211.46L208.94 1768.49L209.02 1769.33C219.971 1887.81 248.6 1971.29 283.36 2014.43C311.575 2049.44 343.315 2059.72 374.15 2050.08L425.764 2608.4C359.046 2652.48 327.225 2692.46 335.937 2786.7L579 2636.57C573.609 2578.26 558.053 2556.57 531.052 2557.66C514.409 2558.33 493.332 2567.75 467.687 2582.49L416.073 2024.18C445.265 1996.76 471.775 1950.49 490.82 1886.28C514.279 1807.19 525.214 1699.28 514.263 1580.8L514.181 1579.94L421.81 704.029L328.159 761.882L447.274 558.19L273.491 681.348L349.168 163.317L202.012 608.906L130.531 0.288086ZM391.213 837.488L428.176 1188.03L202.027 1129.06L188.767 962.522L391.213 837.488ZM-75.7555 1007.21L126.999 1128.83L121.311 1202.67L-102.294 1265.5L-75.7555 1007.21ZM211.134 1243.4L250.133 1253.57C258.577 1385.32 282.239 1720.67 308.696 1785.02C334.809 1848.53 416.077 1801.09 416.077 1801.09C327.783 1818.85 277.402 1467.43 252.975 1254.3L440.317 1303.16L472.364 1607.02C480.528 1695.69 472.924 1763.5 456.613 1818.5C440.284 1873.56 414.04 1914.16 385.379 1931.87C356.721 1949.57 326.207 1944.03 302.013 1914C277.854 1884.02 259.214 1832.42 250.983 1743.84L211.134 1243.4ZM112.494 1317.22L66.7589 1911.14C58.7532 1999.88 40.2417 2051.79 16.1577 2082.18C-7.96234 2112.61 -38.4572 2118.69 -67.1584 2101.46C-95.8619 2084.25 -122.211 2044.08 -138.68 1989.31C-155.125 1934.6 -162.901 1866.92 -154.965 1778.13L-114.151 1380.9L-67.6277 1367.83C-86.6565 1510.14 -121.955 1794.81 -111.658 1877.33C-100.654 1965.54 -20.6258 2025.42 -20.6258 2025.42C-105.029 1897.78 -83.4715 1574.72 -64.1338 1366.85L112.494 1317.22Z" fill="#CC9900" fill-opacity="0.25"/>
</svg>
