<svg width="23" height="15" viewBox="0 0 23 15" fill="none" xmlns="http://www.w3.org/2000/svg">
<path d="M8.39844 1.87939H14.6226V13.1194H8.39844V1.87939Z" fill="#FF5F00"/>
<path d="M8.793 7.50023C8.793 5.21651 9.85998 3.19087 11.5 1.88016C10.2947 0.926958 8.77329 0.351074 7.1135 0.351074C3.18123 0.351074 0 3.54829 0 7.50023C0 11.4521 3.18123 14.6494 7.11341 14.6494C8.7732 14.6494 10.2946 14.0735 11.5 13.1202C9.85998 11.8294 8.793 9.78396 8.793 7.50023Z" fill="#EB001B"/>
<path d="M23 7.50023C23 11.4521 19.8187 14.6494 15.8866 14.6494C14.2268 14.6494 12.7053 14.0735 11.5 13.1202C13.1598 11.8096 14.2071 9.78396 14.2071 7.50023C14.2071 5.21651 13.14 3.19087 11.5 1.88016C12.7052 0.926958 14.2268 0.351074 15.8866 0.351074C19.8187 0.351074 23 3.56819 23 7.50023Z" fill="#F79E1B"/>
</svg>
