<svg width="40" height="36" viewBox="0 0 40 36" fill="none" xmlns="http://www.w3.org/2000/svg">
<ellipse cx="19.6364" cy="18" rx="19.6364" ry="18" fill="#3885D6"/>
<path d="M16.3128 18.2028C16.4232 18.2028 18.9831 18.308 20.5058 17.9505H20.5168C22.2712 17.5405 24.7097 16.363 25.3387 12.5152C25.3387 12.5152 26.74 7.7002 19.7886 7.7002H13.8191C13.2785 7.7002 12.815 8.07867 12.7268 8.5833L10.1889 23.8904C10.1338 24.2058 10.3986 24.5002 10.7296 24.5002H14.5143L15.4411 18.9072C15.5074 18.5077 15.8715 18.2028 16.3128 18.2028Z" fill="white"/>
<path d="M26.8949 14C25.9465 17.6977 22.9606 19.6507 18.2067 19.6507H16.4855L15.2794 26.1142C15.2326 26.372 15.4668 26.6 15.7712 26.6H17.9959C18.3941 26.6 18.7453 26.3522 18.8039 26.0151C18.8976 25.6186 19.4128 22.7238 19.5181 22.2282C19.5767 21.8911 19.928 21.6433 20.3261 21.6433H20.8413C24.1433 21.6433 26.731 20.5032 27.4921 17.2219C27.7965 15.8935 27.6326 14.803 26.8949 14Z" fill="white"/>
</svg>
