<svg width="216" height="241" viewBox="0 0 216 241" fill="none" xmlns="http://www.w3.org/2000/svg">
<path d="M106.768 29.7055L104.168 21.9983C104.168 21.9983 112.061 10.5768 109.089 8.44111C106.118 6.30538 97.3894 17.2626 97.3894 17.2626H89.0322C89.0322 17.2626 80.3036 6.39824 77.3322 8.44111C74.3607 10.484 82.2536 21.9983 82.2536 21.9983L79.6536 29.7055C79.6536 29.7055 66.375 34.4412 67.4893 37.8769C68.6035 41.3127 82.2536 37.5055 82.2536 37.5055L89.0322 42.3341C89.0322 42.3341 89.4965 56.1699 93.2108 56.1699C96.9251 56.1699 97.3894 42.3341 97.3894 42.3341L104.168 37.5055C104.168 37.5055 117.818 41.3127 118.932 37.8769C120.139 34.4412 106.768 29.7055 106.768 29.7055Z" fill="#DA5391" fill-opacity="0.4"/>
<path d="M102.403 9.92659C102.403 19.2123 98.3176 26.8267 93.2105 26.8267C88.1033 26.8267 84.0176 19.3052 84.0176 9.92659C84.0176 0.547982 90.7033 6.02658 93.2105 6.02658C95.7176 6.02658 102.403 0.64084 102.403 9.92659Z" fill="#50112E" fill-opacity="0.4"/>
<path d="M75.66 16.0554C84.76 18.934 90.8886 25.0626 89.31 29.7983C87.7314 34.5341 79.0957 35.9269 69.9957 33.0484C60.8956 30.1698 68.2314 25.6198 68.9742 23.2983C69.7171 21.0697 66.5599 13.1768 75.66 16.0554Z" fill="#50112E" fill-opacity="0.4"/>
<path d="M73.339 42.7982C78.9105 35.2768 86.8034 31.4696 90.8891 34.441C94.9748 37.3196 93.7677 45.7697 88.1034 53.384C82.5319 60.9054 80.3033 52.734 78.3533 51.3411C76.4033 49.8554 67.6747 50.3197 73.339 42.7982Z" fill="#50112E" fill-opacity="0.4"/>
<path d="M98.6887 53.198C93.1173 45.6766 91.8173 37.2265 95.903 34.2551C99.9887 31.3765 107.882 35.0908 113.453 42.6123C119.025 50.1337 110.389 49.6694 108.439 51.0623C106.489 52.548 104.26 60.7195 98.6887 53.198Z" fill="#50112E" fill-opacity="0.4"/>
<path d="M116.61 32.8625C107.51 35.7411 98.8739 34.2554 97.2953 29.6125C95.8096 24.8767 101.938 18.7481 110.945 15.8696C120.045 12.991 116.888 20.8839 117.631 23.2053C118.374 25.4339 125.71 29.9839 116.61 32.8625Z" fill="#50112E" fill-opacity="0.4"/>
<path d="M93.303 34.2552C95.2518 34.2552 96.8316 32.717 96.8316 30.8195C96.8316 28.922 95.2518 27.3838 93.303 27.3838C91.3542 27.3838 89.7744 28.922 89.7744 30.8195C89.7744 32.717 91.3542 34.2552 93.303 34.2552Z" fill="#7A1A46" fill-opacity="0.4"/>
<path d="M60.2358 81.703L57.6358 73.9959C57.6358 73.9959 65.5286 62.5744 62.5572 60.4387C59.5858 58.3029 50.8572 69.2601 50.8572 69.2601H42.5C42.5 69.2601 33.7714 58.3958 30.7999 60.4387C27.8285 62.4815 35.7214 73.9959 35.7214 73.9959L33.1214 81.703C33.1214 81.703 19.8427 86.4388 20.957 89.8745C22.0713 93.3102 35.7214 89.5031 35.7214 89.5031L42.5 94.3317C42.5 94.3317 42.9643 108.167 46.6786 108.167C50.3929 108.167 50.8572 94.3317 50.8572 94.3317L57.6358 89.5031C57.6358 89.5031 71.2858 93.3102 72.4001 89.8745C73.6072 86.4388 60.2358 81.703 60.2358 81.703Z" fill="#DA5391" fill-opacity="0.4"/>
<path d="M55.8711 61.9242C55.8711 71.2099 51.7854 78.8242 46.6782 78.8242C41.5711 78.8242 37.4854 71.3028 37.4854 61.9242C37.4854 52.5455 44.1711 58.0241 46.6782 58.0241C49.1854 58.0241 55.8711 52.6384 55.8711 61.9242Z" fill="#50112E" fill-opacity="0.4"/>
<path d="M29.1277 68.053C38.2278 70.9316 44.3564 77.0602 42.7778 81.7959C41.1992 86.5316 32.5635 87.9245 23.4634 85.0459C14.3634 82.1673 21.6991 77.6173 22.442 75.2959C23.1849 73.0673 20.0277 65.1744 29.1277 68.053Z" fill="#50112E" fill-opacity="0.4"/>
<path d="M26.8068 94.7958C32.3782 87.2743 40.2711 83.4672 44.3569 86.4386C48.4426 89.3172 47.2354 97.7672 41.5711 105.382C35.9997 112.903 33.7711 104.732 31.8211 103.339C29.8711 101.853 21.1425 102.317 26.8068 94.7958Z" fill="#50112E" fill-opacity="0.4"/>
<path d="M52.1565 105.196C46.5851 97.6741 45.2851 89.2241 49.3708 86.2526C53.4565 83.3741 61.3494 87.0884 66.9209 94.6098C72.4923 102.131 63.8566 101.667 61.9066 103.06C59.9565 104.546 57.728 112.717 52.1565 105.196Z" fill="#50112E" fill-opacity="0.4"/>
<path d="M70.0774 84.86C60.9774 87.7386 52.3416 86.2529 50.763 81.61C49.2773 76.8743 55.4059 70.7457 64.4131 67.8671C73.5131 64.9885 70.356 72.8814 71.0988 75.2029C71.8417 77.4314 79.1775 81.9815 70.0774 84.86Z" fill="#50112E" fill-opacity="0.4"/>
<path d="M46.7708 86.2528C48.7196 86.2528 50.2994 84.7146 50.2994 82.8171C50.2994 80.9196 48.7196 79.3813 46.7708 79.3813C44.822 79.3813 43.2422 80.9196 43.2422 82.8171C43.2422 84.7146 44.822 86.2528 46.7708 86.2528Z" fill="#7A1A46" fill-opacity="0.4"/>
<path d="M21.2348 29.7055L18.6348 21.9983C18.6348 21.9983 26.5277 10.5768 23.5562 8.44111C20.5848 6.30538 11.8562 17.2626 11.8562 17.2626H3.499C3.499 17.2626 -5.22961 6.39824 -8.20105 8.44111C-11.1725 10.484 -3.2796 21.9983 -3.2796 21.9983L-5.87961 29.7055C-5.87961 29.7055 -19.1582 34.4412 -18.0439 37.8769C-16.9297 41.3127 -3.2796 37.5055 -3.2796 37.5055L3.499 42.3341C3.499 42.3341 3.96329 56.1699 7.67759 56.1699C11.3919 56.1699 11.8562 42.3341 11.8562 42.3341L18.6348 37.5055C18.6348 37.5055 32.2848 41.3127 33.3991 37.8769C34.6063 34.4412 21.2348 29.7055 21.2348 29.7055Z" fill="#DA5391" fill-opacity="0.4"/>
<path d="M16.8702 9.92659C16.8702 19.2123 12.7844 26.8267 7.67727 26.8267C2.57011 26.8267 -1.51562 19.3052 -1.51562 9.92659C-1.51562 0.547982 5.17012 6.02658 7.67727 6.02658C10.1844 6.02658 16.8702 0.64084 16.8702 9.92659Z" fill="#50112E" fill-opacity="0.4"/>
<path d="M-9.87324 16.0554C-0.773207 18.934 5.35539 25.0626 3.77681 29.7983C2.19823 34.5341 -6.43751 35.9269 -15.5376 33.0484C-24.6376 30.1698 -17.3018 25.6198 -16.559 23.2983C-15.8161 21.0697 -18.9733 13.1768 -9.87324 16.0554Z" fill="#50112E" fill-opacity="0.4"/>
<path d="M-12.1942 42.7982C-6.62274 35.2768 1.27015 31.4696 5.35588 34.441C9.44161 37.3196 8.23446 45.7697 2.57015 53.384C-3.0013 60.9054 -5.22988 52.734 -7.17989 51.3411C-9.1299 49.8554 -17.8585 50.3197 -12.1942 42.7982Z" fill="#50112E" fill-opacity="0.4"/>
<path d="M13.1555 53.198C7.58408 45.6766 6.28408 37.2265 10.3698 34.2551C14.4555 31.3765 22.3484 35.0908 27.9199 42.6123C33.4913 50.1337 24.8556 49.6694 22.9056 51.0623C20.9556 52.548 18.727 60.7195 13.1555 53.198Z" fill="#50112E" fill-opacity="0.4"/>
<path d="M31.0764 32.8625C21.9764 35.7411 13.3407 34.2554 11.7621 29.6125C10.2764 24.8767 16.4049 18.7481 25.4121 15.8696C34.5122 12.991 31.355 20.8839 32.0979 23.2053C32.8407 25.4339 40.1765 29.9839 31.0764 32.8625Z" fill="#50112E" fill-opacity="0.4"/>
<path d="M7.7698 34.2552C9.71858 34.2552 11.2984 32.717 11.2984 30.8195C11.2984 28.922 9.71858 27.3838 7.7698 27.3838C5.82101 27.3838 4.24121 28.922 4.24121 30.8195C4.24121 32.717 5.82101 34.2552 7.7698 34.2552Z" fill="#7A1A46" fill-opacity="0.4"/>
<path d="M37.0326 209.887L34.4326 202.18C34.4326 202.18 42.3255 190.758 39.3541 188.623C36.3826 186.487 27.654 197.444 27.654 197.444H19.2969C19.2969 197.444 10.5682 186.58 7.5968 188.623C4.62536 190.666 12.5183 202.18 12.5183 202.18L9.91824 209.887C9.91824 209.887 -3.36039 214.623 -2.2461 218.059C-1.13181 221.494 12.5183 217.687 12.5183 217.687L19.2969 222.516C19.2969 222.516 19.7611 236.352 23.4754 236.352C27.1897 236.352 27.654 222.516 27.654 222.516L34.4326 217.687C34.4326 217.687 48.0827 221.494 49.197 218.059C50.4041 214.623 37.0326 209.887 37.0326 209.887Z" fill="#DA5391" fill-opacity="0.4"/>
<path d="M32.668 190.108C32.668 199.394 28.5823 207.008 23.4751 207.008C18.368 207.008 14.2822 199.487 14.2822 190.108C14.2822 180.73 20.968 186.208 23.4751 186.208C25.9823 186.208 32.668 180.822 32.668 190.108Z" fill="#50112E" fill-opacity="0.4"/>
<path d="M5.92461 196.237C15.0246 199.116 21.1532 205.244 19.5747 209.98C17.9961 214.716 9.36034 216.109 0.2603 213.23C-8.83974 210.351 -1.50399 205.801 -0.761133 203.48C-0.0182734 201.251 -3.17543 193.358 5.92461 196.237Z" fill="#50112E" fill-opacity="0.4"/>
<path d="M3.60366 222.98C9.17511 215.458 17.068 211.651 21.1537 214.623C25.2395 217.501 24.0323 225.951 18.368 233.566C12.7966 241.087 10.568 232.916 8.61796 231.523C6.66796 230.037 -2.06065 230.501 3.60366 222.98Z" fill="#50112E" fill-opacity="0.4"/>
<path d="M28.9534 233.38C23.3819 225.858 22.0819 217.408 26.1677 214.437C30.2534 211.558 38.1463 215.272 43.7177 222.794C49.2892 230.315 40.6534 229.851 38.7034 231.244C36.7534 232.73 34.5248 240.901 28.9534 233.38Z" fill="#50112E" fill-opacity="0.4"/>
<path d="M46.8743 213.044C37.7743 215.923 29.1385 214.437 27.5599 209.794C26.0742 205.058 32.2028 198.93 41.21 196.051C50.31 193.173 47.1529 201.066 47.8957 203.387C48.6386 205.616 55.9743 210.166 46.8743 213.044Z" fill="#50112E" fill-opacity="0.4"/>
<path d="M23.5676 214.437C25.5164 214.437 27.0962 212.899 27.0962 211.001C27.0962 209.104 25.5164 207.565 23.5676 207.565C21.6189 207.565 20.0391 209.104 20.0391 211.001C20.0391 212.899 21.6189 214.437 23.5676 214.437Z" fill="#7A1A46" fill-opacity="0.4"/>
<path d="M-12.2369 168.06L-14.8369 160.353C-14.8369 160.353 -6.94401 148.932 -9.91545 146.796C-12.8869 144.66 -21.6155 155.618 -21.6155 155.618H-29.9727C-29.9727 155.618 -38.7013 144.753 -41.6727 146.796C-44.6442 148.839 -36.7513 160.353 -36.7513 160.353L-39.3513 168.06C-39.3513 168.06 -52.6299 172.796 -51.5156 176.232C-50.4013 179.668 -36.7513 175.86 -36.7513 175.86L-29.9727 180.689C-29.9727 180.689 -29.5084 194.525 -25.7941 194.525C-22.0798 194.525 -21.6155 180.689 -21.6155 180.689L-14.8369 175.86C-14.8369 175.86 -1.18685 179.668 -0.0725555 176.232C1.13459 172.796 -12.2369 168.06 -12.2369 168.06Z" fill="#DA5391" fill-opacity="0.4"/>
<path d="M-20.3161 191.553C-25.8876 184.032 -27.1876 175.582 -23.1019 172.61C-19.0161 169.731 -11.1232 173.446 -5.5518 180.967C0.0196533 188.489 -8.6161 188.024 -10.5661 189.417C-12.5161 190.903 -14.7447 199.074 -20.3161 191.553Z" fill="#50112E" fill-opacity="0.4"/>
<path d="M-2.39524 171.217C-11.4953 174.096 -20.131 172.61 -21.7096 167.967C-23.1953 163.232 -17.0667 157.103 -8.05955 154.225C1.04049 151.346 -2.11667 159.239 -1.37381 161.56C-0.630949 163.789 6.70479 168.339 -2.39524 171.217Z" fill="#50112E" fill-opacity="0.4"/>
<path d="M-8.22908 100.384L-10.8291 92.677C-10.8291 92.677 -2.9362 81.2555 -5.90764 79.1198C-8.87908 76.9841 -17.6077 87.9413 -17.6077 87.9413H-25.9649C-25.9649 87.9413 -34.6935 77.077 -37.6649 79.1198C-40.6364 81.1627 -32.7435 92.677 -32.7435 92.677L-35.3435 100.384C-35.3435 100.384 -48.6221 105.12 -47.5078 108.556C-46.3935 111.991 -32.7435 108.184 -32.7435 108.184L-25.9649 113.013C-25.9649 113.013 -25.5006 126.849 -21.7863 126.849C-18.072 126.849 -17.6077 113.013 -17.6077 113.013L-10.8291 108.184C-10.8291 108.184 2.82096 111.991 3.93526 108.556C5.1424 105.12 -8.22908 100.384 -8.22908 100.384Z" fill="#DA5391" fill-opacity="0.4"/>
<path d="M-16.3083 123.877C-21.8798 116.355 -23.1798 107.905 -19.0941 104.934C-15.0083 102.055 -7.11544 105.77 -1.54399 113.291C4.02747 120.812 -4.60828 120.348 -6.55829 121.741C-8.5083 123.227 -10.7369 131.398 -16.3083 123.877Z" fill="#50112E" fill-opacity="0.4"/>
<path d="M1.61257 103.541C-7.48747 106.42 -16.1232 104.934 -17.7018 100.291C-19.1875 95.5555 -13.0589 89.4269 -4.05174 86.5483C5.0483 83.6697 1.89114 91.5626 2.634 93.884C3.37686 96.1126 10.7126 100.663 1.61257 103.541Z" fill="#50112E" fill-opacity="0.4"/>
<path d="M199.166 102.782L196.566 95.075C196.566 95.075 204.459 83.6535 201.488 81.5178C198.516 79.382 189.788 90.3392 189.788 90.3392H181.431C181.431 90.3392 172.702 79.4749 169.731 81.5178C166.759 83.5606 174.652 95.075 174.652 95.075L172.052 102.782C172.052 102.782 158.773 107.518 159.888 110.954C161.002 114.389 174.652 110.582 174.652 110.582L181.431 115.411C181.431 115.411 181.895 129.247 185.609 129.247C189.324 129.247 189.788 115.411 189.788 115.411L196.566 110.582C196.566 110.582 210.216 114.389 211.331 110.954C212.538 107.518 199.166 102.782 199.166 102.782Z" fill="#DA5391" fill-opacity="0.4"/>
<path d="M194.802 83.0033C194.802 92.289 190.716 99.9033 185.609 99.9033C180.502 99.9033 176.416 92.3819 176.416 83.0033C176.416 73.6246 183.102 79.1032 185.609 79.1032C188.116 79.1032 194.802 73.7175 194.802 83.0033Z" fill="#50112E" fill-opacity="0.4"/>
<path d="M168.058 89.1321C177.158 92.0107 183.287 98.1393 181.708 102.875C180.13 107.611 171.494 109.004 162.394 106.125C153.294 103.246 160.63 98.6964 161.373 96.375C162.116 94.1464 158.958 86.2535 168.058 89.1321Z" fill="#50112E" fill-opacity="0.4"/>
<path d="M165.737 115.875C171.309 108.353 179.202 104.546 183.288 107.518C187.373 110.396 186.166 118.846 180.502 126.461C174.93 133.982 172.702 125.811 170.752 124.418C168.802 122.932 160.073 123.396 165.737 115.875Z" fill="#50112E" fill-opacity="0.4"/>
<path d="M191.087 126.275C185.516 118.753 184.216 110.303 188.301 107.332C192.387 104.453 200.28 108.167 205.852 115.689C211.423 123.21 202.787 122.746 200.837 124.139C198.887 125.625 196.659 133.796 191.087 126.275Z" fill="#50112E" fill-opacity="0.4"/>
<path d="M209.008 105.939C199.908 108.818 191.272 107.332 189.694 102.689C188.208 97.9534 194.337 91.8248 203.344 88.9462C212.444 86.0676 209.287 93.9605 210.03 96.282C210.772 98.5105 218.108 103.061 209.008 105.939Z" fill="#50112E" fill-opacity="0.4"/>
<path d="M185.701 107.332C187.65 107.332 189.23 105.794 189.23 103.896C189.23 101.999 187.65 100.46 185.701 100.46C183.753 100.46 182.173 101.999 182.173 103.896C182.173 105.794 183.753 107.332 185.701 107.332Z" fill="#7A1A46" fill-opacity="0.4"/>
<path d="M185.249 202.133L182.649 194.426C182.649 194.426 190.542 183.005 187.571 180.869C184.599 178.733 175.871 189.69 175.871 189.69H167.514C167.514 189.69 158.785 178.826 155.814 180.869C152.842 182.912 160.735 194.426 160.735 194.426L158.135 202.133C158.135 202.133 144.856 206.869 145.971 210.305C147.085 213.74 160.735 209.933 160.735 209.933L167.514 214.762C167.514 214.762 167.978 228.598 171.692 228.598C175.407 228.598 175.871 214.762 175.871 214.762L182.649 209.933C182.649 209.933 196.299 213.74 197.414 210.305C198.621 206.869 185.249 202.133 185.249 202.133Z" fill="#DA5391" fill-opacity="0.4"/>
<path d="M180.885 182.354C180.885 191.64 176.799 199.254 171.692 199.254C166.585 199.254 162.499 191.733 162.499 182.354C162.499 172.976 169.185 178.454 171.692 178.454C174.199 178.454 180.885 173.069 180.885 182.354Z" fill="#50112E" fill-opacity="0.4"/>
<path d="M154.141 188.483C163.241 191.362 169.37 197.49 167.791 202.226C166.213 206.962 157.577 208.355 148.477 205.476C139.377 202.598 146.713 198.047 147.456 195.726C148.199 193.497 145.041 185.605 154.141 188.483Z" fill="#50112E" fill-opacity="0.4"/>
<path d="M151.82 215.226C157.392 207.704 165.285 203.897 169.371 206.869C173.456 209.747 172.249 218.197 166.585 225.812C161.013 233.333 158.785 225.162 156.835 223.769C154.885 222.283 146.156 222.747 151.82 215.226Z" fill="#50112E" fill-opacity="0.4"/>
<path d="M177.17 225.626C171.599 218.104 170.299 209.654 174.384 206.683C178.47 203.804 186.363 207.519 191.935 215.04C197.506 222.561 188.87 222.097 186.92 223.49C184.97 224.976 182.742 233.147 177.17 225.626Z" fill="#50112E" fill-opacity="0.4"/>
<path d="M195.091 205.29C185.991 208.169 177.355 206.683 175.777 202.04C174.291 197.304 180.42 191.176 189.427 188.297C198.527 185.419 195.37 193.312 196.113 195.633C196.855 197.862 204.191 202.412 195.091 205.29Z" fill="#50112E" fill-opacity="0.4"/>
<path d="M171.784 206.683C173.733 206.683 175.313 205.145 175.313 203.247C175.313 201.35 173.733 199.812 171.784 199.812C169.836 199.812 168.256 201.35 168.256 203.247C168.256 205.145 169.836 206.683 171.784 206.683Z" fill="#7A1A46" fill-opacity="0.4"/>
<path d="M104.716 197.775L102.116 190.068C102.116 190.068 110.009 178.646 107.038 176.51C104.066 174.375 95.3376 185.332 95.3376 185.332H86.9804C86.9804 185.332 78.2518 174.468 75.2804 176.51C72.309 178.553 80.2018 190.068 80.2018 190.068L77.6018 197.775C77.6018 197.775 64.3232 202.511 65.4375 205.946C66.5518 209.382 80.2018 205.575 80.2018 205.575L86.9804 210.403C86.9804 210.403 87.4447 224.239 91.159 224.239C94.8733 224.239 95.3376 210.403 95.3376 210.403L102.116 205.575C102.116 205.575 115.766 209.382 116.881 205.946C118.088 202.511 104.716 197.775 104.716 197.775Z" fill="#DA5391" fill-opacity="0.4"/>
<path d="M100.352 177.996C100.352 187.282 96.2659 194.896 91.1587 194.896C86.0516 194.896 81.9658 187.375 81.9658 177.996C81.9658 168.617 88.6516 174.096 91.1587 174.096C93.6659 174.096 100.352 168.71 100.352 177.996Z" fill="#50112E" fill-opacity="0.4"/>
<path d="M73.6082 184.125C82.7082 187.003 88.8368 193.132 87.2583 197.868C85.6797 202.603 77.0439 203.996 67.9439 201.118C58.8439 198.239 66.1796 193.689 66.9225 191.368C67.6653 189.139 64.5082 181.246 73.6082 184.125Z" fill="#50112E" fill-opacity="0.4"/>
<path d="M71.2873 210.868C76.8587 203.346 84.7516 199.539 88.8373 202.51C92.9231 205.389 91.7159 213.839 86.0516 221.453C80.4801 228.975 78.2516 220.803 76.3016 219.41C74.3516 217.925 65.6229 218.389 71.2873 210.868Z" fill="#50112E" fill-opacity="0.4"/>
<path d="M96.637 221.267C91.0655 213.746 89.7655 205.296 93.8513 202.324C97.937 199.446 105.83 203.16 111.401 210.682C116.973 218.203 108.337 217.739 106.387 219.132C104.437 220.617 102.208 228.789 96.637 221.267Z" fill="#50112E" fill-opacity="0.4"/>
<path d="M114.558 200.932C105.458 203.81 96.8221 202.325 95.2435 197.682C93.7578 192.946 99.8864 186.817 108.894 183.939C117.994 181.06 114.836 188.953 115.579 191.275C116.322 193.503 123.658 198.053 114.558 200.932Z" fill="#50112E" fill-opacity="0.4"/>
<path d="M91.2512 202.325C93.2 202.325 94.7798 200.786 94.7798 198.889C94.7798 196.991 93.2 195.453 91.2512 195.453C89.3025 195.453 87.7227 196.991 87.7227 198.889C87.7227 200.786 89.3025 202.325 91.2512 202.325Z" fill="#7A1A46" fill-opacity="0.4"/>
<path d="M162.934 157.89L160.334 150.183C160.334 150.183 168.227 138.761 165.255 136.626C162.284 134.49 153.555 145.447 153.555 145.447H145.198C145.198 145.447 136.47 134.583 133.498 136.626C130.527 138.669 138.42 150.183 138.42 150.183L135.82 157.89C135.82 157.89 122.541 162.626 123.655 166.062C124.77 169.497 138.42 165.69 138.42 165.69L145.198 170.519C145.198 170.519 145.663 184.354 149.377 184.354C153.091 184.354 153.555 170.519 153.555 170.519L160.334 165.69C160.334 165.69 173.984 169.497 175.098 166.062C176.305 162.626 162.934 157.89 162.934 157.89Z" fill="#DA5391" fill-opacity="0.4"/>
<path d="M158.569 138.111C158.569 147.397 154.484 155.011 149.376 155.011C144.269 155.011 140.184 147.49 140.184 138.111C140.184 128.733 146.869 134.211 149.376 134.211C151.884 134.211 158.569 128.825 158.569 138.111Z" fill="#50112E" fill-opacity="0.4"/>
<path d="M131.826 144.24C140.926 147.119 147.055 153.247 145.476 157.983C143.897 162.719 135.262 164.112 126.162 161.233C117.062 158.354 124.397 153.804 125.14 151.483C125.883 149.254 122.726 141.361 131.826 144.24Z" fill="#50112E" fill-opacity="0.4"/>
<path d="M129.505 170.983C135.076 163.461 142.969 159.654 147.055 162.626C151.141 165.504 149.934 173.954 144.269 181.569C138.698 189.09 136.469 180.919 134.519 179.526C132.569 178.04 123.841 178.504 129.505 170.983Z" fill="#50112E" fill-opacity="0.4"/>
<path d="M154.855 181.383C149.283 173.861 147.983 165.411 152.069 162.44C156.155 159.561 164.048 163.275 169.619 170.797C175.191 178.318 166.555 177.854 164.605 179.247C162.655 180.733 160.426 188.904 154.855 181.383Z" fill="#50112E" fill-opacity="0.4"/>
<path d="M172.776 161.047C163.676 163.926 155.04 162.44 153.461 157.797C151.976 153.061 158.104 146.933 167.111 144.054C176.211 141.176 173.054 149.068 173.797 151.39C174.54 153.618 181.876 158.168 172.776 161.047Z" fill="#50112E" fill-opacity="0.4"/>
<path d="M149.469 162.44C151.418 162.44 152.998 160.902 152.998 159.004C152.998 157.107 151.418 155.568 149.469 155.568C147.52 155.568 145.94 157.107 145.94 159.004C145.94 160.902 147.52 162.44 149.469 162.44Z" fill="#7A1A46" fill-opacity="0.4"/>
<path d="M138.175 83.5629L135.575 75.8557C135.575 75.8557 143.468 64.4343 140.497 62.2985C137.525 60.1628 128.797 71.12 128.797 71.12H120.439C120.439 71.12 111.711 60.2557 108.739 62.2985C105.768 64.3414 113.661 75.8557 113.661 75.8557L111.061 83.5629C111.061 83.5629 97.7822 88.2986 98.8965 91.7344C100.011 95.1701 113.661 91.3629 113.661 91.3629L120.439 96.1915C120.439 96.1915 120.904 110.027 124.618 110.027C128.332 110.027 128.797 96.1915 128.797 96.1915L135.575 91.3629C135.575 91.3629 149.225 95.1701 150.34 91.7344C151.547 88.2986 138.175 83.5629 138.175 83.5629Z" fill="#DA5391" fill-opacity="0.4"/>
<path d="M133.811 63.784C133.811 73.0698 129.725 80.6841 124.618 80.6841C119.511 80.6841 115.425 73.1626 115.425 63.784C115.425 54.4054 122.111 59.884 124.618 59.884C127.125 59.884 133.811 54.4983 133.811 63.784Z" fill="#50112E" fill-opacity="0.4"/>
<path d="M107.067 69.9128C116.167 72.7914 122.296 78.92 120.717 83.6558C119.139 88.3915 110.503 89.7844 101.403 86.9058C92.3028 84.0272 99.6386 79.4772 100.381 77.1557C101.124 74.9272 97.9671 67.0343 107.067 69.9128Z" fill="#50112E" fill-opacity="0.4"/>
<path d="M104.746 96.6556C110.318 89.1342 118.211 85.327 122.296 88.2985C126.382 91.177 125.175 99.6271 119.511 107.241C113.939 114.763 111.711 106.591 109.761 105.199C107.811 103.713 99.0819 104.177 104.746 96.6556Z" fill="#50112E" fill-opacity="0.4"/>
<path d="M130.096 107.055C124.525 99.534 123.225 91.0839 127.31 88.1125C131.396 85.2339 139.289 88.9482 144.86 96.4697C150.432 103.991 141.796 103.527 139.846 104.92C137.896 106.405 135.667 114.577 130.096 107.055Z" fill="#50112E" fill-opacity="0.4"/>
<path d="M148.017 86.7199C138.917 89.5985 130.281 88.1128 128.703 83.4699C127.217 78.7342 133.345 72.6056 142.353 69.727C151.453 66.8484 148.295 74.7413 149.038 77.0627C149.781 79.2913 157.117 83.8413 148.017 86.7199Z" fill="#50112E" fill-opacity="0.4"/>
<path d="M124.71 88.1127C126.659 88.1127 128.239 86.5744 128.239 84.6769C128.239 82.7794 126.659 81.2412 124.71 81.2412C122.761 81.2412 121.182 82.7794 121.182 84.6769C121.182 86.5744 122.761 88.1127 124.71 88.1127Z" fill="#7A1A46" fill-opacity="0.4"/>
<path d="M103.505 135.56L100.905 127.853C100.905 127.853 108.798 116.432 105.827 114.296C102.855 112.16 94.1267 123.118 94.1267 123.118H85.7695C85.7695 123.118 77.0409 112.253 74.0695 114.296C71.098 116.339 78.9909 127.853 78.9909 127.853L76.3909 135.56C76.3909 135.56 63.1123 140.296 64.2266 143.732C65.3408 147.168 78.9909 143.36 78.9909 143.36L85.7695 148.189C85.7695 148.189 86.2338 162.025 89.9481 162.025C93.6624 162.025 94.1267 148.189 94.1267 148.189L100.905 143.36C100.905 143.36 114.555 147.168 115.67 143.732C116.877 140.296 103.505 135.56 103.505 135.56Z" fill="#DA5391" fill-opacity="0.4"/>
<path d="M99.1407 115.782C99.1407 125.067 95.0549 132.682 89.9478 132.682C84.8406 132.682 80.7549 125.16 80.7549 115.782C80.7549 106.403 87.4406 111.882 89.9478 111.882C92.4549 111.882 99.1407 106.496 99.1407 115.782Z" fill="#50112E" fill-opacity="0.4"/>
<path d="M72.3973 121.91C81.4973 124.789 87.6259 130.918 86.0473 135.653C84.4687 140.389 75.833 141.782 66.733 138.903C57.6329 136.025 64.9687 131.475 65.7115 129.153C66.4544 126.925 63.2972 119.032 72.3973 121.91Z" fill="#50112E" fill-opacity="0.4"/>
<path d="M70.0763 148.653C75.6478 141.132 83.5407 137.325 87.6264 140.296C91.7121 143.175 90.505 151.625 84.8407 159.239C79.2692 166.76 77.0406 158.589 75.0906 157.196C73.1406 155.71 64.412 156.175 70.0763 148.653Z" fill="#50112E" fill-opacity="0.4"/>
<path d="M95.426 159.053C89.8546 151.532 88.5546 143.082 92.6403 140.11C96.726 137.231 104.619 140.946 110.19 148.467C115.762 155.989 107.126 155.524 105.176 156.917C103.226 158.403 100.997 166.574 95.426 159.053Z" fill="#50112E" fill-opacity="0.4"/>
<path d="M113.347 138.717C104.247 141.596 95.6112 140.11 94.0326 135.467C92.5469 130.732 98.6755 124.603 107.683 121.725C116.783 118.846 113.626 126.739 114.368 129.06C115.111 131.289 122.447 135.839 113.347 138.717Z" fill="#50112E" fill-opacity="0.4"/>
<path d="M90.0403 140.11C91.9891 140.11 93.5689 138.572 93.5689 136.674C93.5689 134.777 91.9891 133.239 90.0403 133.239C88.0915 133.239 86.5117 134.777 86.5117 136.674C86.5117 138.572 88.0915 140.11 90.0403 140.11Z" fill="#7A1A46" fill-opacity="0.4"/>
<path d="M40.561 144.627L37.9609 136.92C37.9609 136.92 45.8538 125.499 42.8824 123.363C39.911 121.227 31.1824 132.184 31.1824 132.184H22.8252C22.8252 132.184 14.0966 121.32 11.1251 123.363C8.15368 125.406 16.0466 136.92 16.0466 136.92L13.4466 144.627C13.4466 144.627 0.167933 149.363 1.28222 152.799C2.39651 156.235 16.0466 152.427 16.0466 152.427L22.8252 157.256C22.8252 157.256 23.2895 171.092 27.0038 171.092C30.7181 171.092 31.1824 157.256 31.1824 157.256L37.9609 152.427C37.9609 152.427 51.611 156.235 52.7253 152.799C53.9324 149.363 40.561 144.627 40.561 144.627Z" fill="#DA5391" fill-opacity="0.4"/>
<path d="M36.1963 124.848C36.1963 134.134 32.1106 141.749 27.0034 141.749C21.8963 141.749 17.8105 134.227 17.8105 124.848C17.8105 115.47 24.4963 120.948 27.0034 120.948C29.5106 120.948 36.1963 115.563 36.1963 124.848Z" fill="#50112E" fill-opacity="0.4"/>
<path d="M9.45293 130.977C18.553 133.856 24.6816 139.984 23.103 144.72C21.5244 149.456 12.8887 150.849 3.78862 147.97C-5.31142 145.092 2.02433 140.542 2.76719 138.22C3.51005 135.992 0.352891 128.099 9.45293 130.977Z" fill="#50112E" fill-opacity="0.4"/>
<path d="M7.13198 157.72C12.7034 150.199 20.5963 146.391 24.6821 149.363C28.7678 152.242 27.5606 160.692 21.8963 168.306C16.3249 175.827 14.0963 167.656 12.1463 166.263C10.1963 164.777 1.46767 165.242 7.13198 157.72Z" fill="#50112E" fill-opacity="0.4"/>
<path d="M32.4817 168.12C26.9103 160.598 25.6102 152.148 29.696 149.177C33.7817 146.298 41.6746 150.013 47.2461 157.534C52.8175 165.056 44.1818 164.591 42.2317 165.984C40.2817 167.47 38.0532 175.641 32.4817 168.12Z" fill="#50112E" fill-opacity="0.4"/>
<path d="M50.4026 147.784C41.3026 150.663 32.6668 149.177 31.0882 144.534C29.6025 139.799 35.7311 133.67 44.7383 130.791C53.8383 127.913 50.6812 135.806 51.424 138.127C52.1669 140.356 59.5026 144.906 50.4026 147.784Z" fill="#50112E" fill-opacity="0.4"/>
<path d="M27.096 149.177C29.0448 149.177 30.6246 147.639 30.6246 145.741C30.6246 143.844 29.0448 142.306 27.096 142.306C25.1472 142.306 23.5674 143.844 23.5674 145.741C23.5674 147.639 25.1472 149.177 27.096 149.177Z" fill="#7A1A46" fill-opacity="0.4"/>
</svg>
