<svg width="183" height="241" viewBox="0 0 183 241" fill="none" xmlns="http://www.w3.org/2000/svg">
<path d="M163.011 29.7055L160.411 21.9983C160.411 21.9983 168.304 10.5768 165.333 8.44111C162.361 6.30538 153.633 17.2626 153.633 17.2626H145.275C145.275 17.2626 136.547 6.39824 133.575 8.44111C130.604 10.484 138.497 21.9983 138.497 21.9983L135.897 29.7055C135.897 29.7055 122.618 34.4412 123.732 37.8769C124.847 41.3127 138.497 37.5055 138.497 37.5055L145.275 42.3341C145.275 42.3341 145.74 56.1699 149.454 56.1699C153.168 56.1699 153.633 42.3341 153.633 42.3341L160.411 37.5055C160.411 37.5055 174.061 41.3127 175.175 37.8769C176.383 34.4412 163.011 29.7055 163.011 29.7055Z" fill="#DA5391" fill-opacity="0.4"/>
<path d="M158.647 9.92659C158.647 19.2123 154.561 26.8267 149.454 26.8267C144.346 26.8267 140.261 19.3052 140.261 9.92659C140.261 0.547982 146.946 6.02658 149.454 6.02658C151.961 6.02658 158.647 0.64084 158.647 9.92659Z" fill="#50112E" fill-opacity="0.4"/>
<path d="M131.903 16.0554C141.003 18.934 147.132 25.0626 145.553 29.7983C143.975 34.5341 135.339 35.9269 126.239 33.0484C117.139 30.1698 124.475 25.6198 125.217 23.2983C125.96 21.0697 122.803 13.1768 131.903 16.0554Z" fill="#50112E" fill-opacity="0.4"/>
<path d="M129.582 42.7982C135.154 35.2768 143.047 31.4696 147.132 34.441C151.218 37.3196 150.011 45.7697 144.347 53.384C138.775 60.9054 136.546 52.734 134.596 51.3411C132.646 49.8554 123.918 50.3197 129.582 42.7982Z" fill="#50112E" fill-opacity="0.4"/>
<path d="M154.932 53.198C149.36 45.6766 148.06 37.2265 152.146 34.2551C156.232 31.3765 164.125 35.0908 169.696 42.6123C175.268 50.1337 166.632 49.6694 164.682 51.0623C162.732 52.548 160.503 60.7195 154.932 53.198Z" fill="#50112E" fill-opacity="0.4"/>
<path d="M172.853 32.8625C163.753 35.7411 155.117 34.2554 153.538 29.6125C152.053 24.8767 158.181 18.7481 167.188 15.8696C176.289 12.991 173.131 20.8839 173.874 23.2053C174.617 25.4339 181.953 29.9839 172.853 32.8625Z" fill="#50112E" fill-opacity="0.4"/>
<path d="M149.546 34.2552C151.495 34.2552 153.075 32.717 153.075 30.8195C153.075 28.922 151.495 27.3838 149.546 27.3838C147.597 27.3838 146.018 28.922 146.018 30.8195C146.018 32.717 147.597 34.2552 149.546 34.2552Z" fill="#7A1A46" fill-opacity="0.4"/>
<path d="M116.479 81.703L113.879 73.9959C113.879 73.9959 121.772 62.5744 118.8 60.4387C115.829 58.3029 107.1 69.2601 107.1 69.2601H98.7431C98.7431 69.2601 90.0145 58.3958 87.0431 60.4387C84.0716 62.4815 91.9645 73.9959 91.9645 73.9959L89.3645 81.703C89.3645 81.703 76.0859 86.4388 77.2002 89.8745C78.3145 93.3102 91.9645 89.5031 91.9645 89.5031L98.7431 94.3317C98.7431 94.3317 99.2074 108.167 102.922 108.167C106.636 108.167 107.1 94.3317 107.1 94.3317L113.879 89.5031C113.879 89.5031 127.529 93.3102 128.643 89.8745C129.85 86.4388 116.479 81.703 116.479 81.703Z" fill="#DA5391" fill-opacity="0.4"/>
<path d="M112.114 61.9242C112.114 71.2099 108.029 78.8242 102.921 78.8242C97.8142 78.8242 93.7285 71.3028 93.7285 61.9242C93.7285 52.5455 100.414 58.0241 102.921 58.0241C105.429 58.0241 112.114 52.6384 112.114 61.9242Z" fill="#50112E" fill-opacity="0.4"/>
<path d="M85.3709 68.053C94.4709 70.9316 100.6 77.0602 99.021 81.7959C97.4424 86.5316 88.8066 87.9245 79.7066 85.0459C70.6066 82.1673 77.9423 77.6173 78.6852 75.2959C79.428 73.0673 76.2709 65.1744 85.3709 68.053Z" fill="#50112E" fill-opacity="0.4"/>
<path d="M83.0499 94.7958C88.6214 87.2743 96.5143 83.4672 100.6 86.4386C104.686 89.3172 103.479 97.7672 97.8143 105.382C92.2428 112.903 90.0143 104.732 88.0643 103.339C86.1142 101.853 77.3856 102.317 83.0499 94.7958Z" fill="#50112E" fill-opacity="0.4"/>
<path d="M108.4 105.196C102.828 97.6741 101.528 89.2241 105.614 86.2526C109.7 83.3741 117.593 87.0884 123.164 94.6098C128.735 102.131 120.1 101.667 118.15 103.06C116.2 104.546 113.971 112.717 108.4 105.196Z" fill="#50112E" fill-opacity="0.4"/>
<path d="M126.321 84.86C117.221 87.7386 108.585 86.2529 107.006 81.61C105.52 76.8743 111.649 70.7457 120.656 67.8671C129.756 64.9885 126.599 72.8814 127.342 75.2029C128.085 77.4314 135.421 81.9815 126.321 84.86Z" fill="#50112E" fill-opacity="0.4"/>
<path d="M103.014 86.2528C104.963 86.2528 106.543 84.7146 106.543 82.8171C106.543 80.9196 104.963 79.3813 103.014 79.3813C101.065 79.3813 99.4854 80.9196 99.4854 82.8171C99.4854 84.7146 101.065 86.2528 103.014 86.2528Z" fill="#7A1A46" fill-opacity="0.4"/>
<path d="M77.478 29.7055L74.8779 21.9983C74.8779 21.9983 82.7708 10.5768 79.7994 8.44111C76.8279 6.30538 68.0993 17.2626 68.0993 17.2626H59.7422C59.7422 17.2626 51.0136 6.39824 48.0421 8.44111C45.0707 10.484 52.9636 21.9983 52.9636 21.9983L50.3636 29.7055C50.3636 29.7055 37.0849 34.4412 38.1992 37.8769C39.3135 41.3127 52.9636 37.5055 52.9636 37.5055L59.7422 42.3341C59.7422 42.3341 60.2064 56.1699 63.9208 56.1699C67.6351 56.1699 68.0993 42.3341 68.0993 42.3341L74.8779 37.5055C74.8779 37.5055 88.528 41.3127 89.6423 37.8769C90.8494 34.4412 77.478 29.7055 77.478 29.7055Z" fill="#DA5391" fill-opacity="0.4"/>
<path d="M73.1133 9.92659C73.1133 19.2123 69.0276 26.8267 63.9204 26.8267C58.8133 26.8267 54.7275 19.3052 54.7275 9.92659C54.7275 0.547982 61.4133 6.02658 63.9204 6.02658C66.4276 6.02658 73.1133 0.64084 73.1133 9.92659Z" fill="#50112E" fill-opacity="0.4"/>
<path d="M46.3699 16.0554C55.47 18.934 61.5986 25.0626 60.02 29.7983C58.4414 34.5341 49.8056 35.9269 40.7056 33.0484C31.6056 30.1698 38.9413 25.6198 39.6842 23.2983C40.427 21.0697 37.2699 13.1768 46.3699 16.0554Z" fill="#50112E" fill-opacity="0.4"/>
<path d="M44.049 42.7982C49.6204 35.2768 57.5133 31.4696 61.599 34.441C65.6848 37.3196 64.4776 45.7697 58.8133 53.384C53.2419 60.9054 51.0133 52.734 49.0633 51.3411C47.1133 49.8554 38.3847 50.3197 44.049 42.7982Z" fill="#50112E" fill-opacity="0.4"/>
<path d="M69.3987 53.198C63.8272 45.6766 62.5272 37.2265 66.613 34.2551C70.6987 31.3765 78.5916 35.0908 84.163 42.6123C89.7345 50.1337 81.0987 49.6694 79.1487 51.0623C77.1987 52.548 74.9701 60.7195 69.3987 53.198Z" fill="#50112E" fill-opacity="0.4"/>
<path d="M87.3196 32.8625C78.2196 35.7411 69.5838 34.2554 68.0052 29.6125C66.5195 24.8767 72.6481 18.7481 81.6553 15.8696C90.7553 12.991 87.5982 20.8839 88.341 23.2053C89.0839 25.4339 96.4196 29.9839 87.3196 32.8625Z" fill="#50112E" fill-opacity="0.4"/>
<path d="M64.013 34.2552C65.9617 34.2552 67.5415 32.717 67.5415 30.8195C67.5415 28.922 65.9617 27.3838 64.013 27.3838C62.0642 27.3838 60.4844 28.922 60.4844 30.8195C60.4844 32.717 62.0642 34.2552 64.013 34.2552Z" fill="#7A1A46" fill-opacity="0.4"/>
<path d="M93.2758 209.887L90.6758 202.18C90.6758 202.18 98.5687 190.758 95.5972 188.623C92.6258 186.487 83.8972 197.444 83.8972 197.444H75.54C75.54 197.444 66.8114 186.58 63.84 188.623C60.8685 190.666 68.7614 202.18 68.7614 202.18L66.1614 209.887C66.1614 209.887 52.8828 214.623 53.9971 218.059C55.1114 221.494 68.7614 217.687 68.7614 217.687L75.54 222.516C75.54 222.516 76.0043 236.352 79.7186 236.352C83.4329 236.352 83.8972 222.516 83.8972 222.516L90.6758 217.687C90.6758 217.687 104.326 221.494 105.44 218.059C106.647 214.623 93.2758 209.887 93.2758 209.887Z" fill="#DA5391" fill-opacity="0.4"/>
<path d="M88.9112 190.108C88.9112 199.394 84.8254 207.008 79.7183 207.008C74.6111 207.008 70.5254 199.487 70.5254 190.108C70.5254 180.73 77.2111 186.208 79.7183 186.208C82.2254 186.208 88.9112 180.822 88.9112 190.108Z" fill="#50112E" fill-opacity="0.4"/>
<path d="M62.1678 196.237C71.2678 199.116 77.3964 205.244 75.8178 209.98C74.2393 214.716 65.6035 216.109 56.5035 213.23C47.4034 210.351 54.7392 205.801 55.482 203.48C56.2249 201.251 53.0677 193.358 62.1678 196.237Z" fill="#50112E" fill-opacity="0.4"/>
<path d="M59.8468 222.98C65.4183 215.458 73.3112 211.651 77.3969 214.623C81.4826 217.501 80.2755 225.951 74.6112 233.566C69.0397 241.087 66.8111 232.916 64.8611 231.523C62.9111 230.037 54.1825 230.501 59.8468 222.98Z" fill="#50112E" fill-opacity="0.4"/>
<path d="M85.1966 233.38C79.6251 225.858 78.3251 217.408 82.4108 214.437C86.4966 211.558 94.3894 215.272 99.9609 222.794C105.532 230.315 96.8966 229.851 94.9466 231.244C92.9966 232.73 90.768 240.901 85.1966 233.38Z" fill="#50112E" fill-opacity="0.4"/>
<path d="M103.117 213.044C94.0174 215.923 85.3817 214.437 83.8031 209.794C82.3174 205.058 88.446 198.93 97.4531 196.051C106.553 193.173 103.396 201.066 104.139 203.387C104.882 205.616 112.217 210.166 103.117 213.044Z" fill="#50112E" fill-opacity="0.4"/>
<path d="M79.8108 214.437C81.7596 214.437 83.3394 212.899 83.3394 211.001C83.3394 209.104 81.7596 207.565 79.8108 207.565C77.862 207.565 76.2822 209.104 76.2822 211.001C76.2822 212.899 77.862 214.437 79.8108 214.437Z" fill="#7A1A46" fill-opacity="0.4"/>
<path d="M44.0063 168.06L41.4063 160.353C41.4063 160.353 49.2992 148.932 46.3277 146.796C43.3563 144.66 34.6277 155.618 34.6277 155.618H26.2705C26.2705 155.618 17.5419 144.753 14.5704 146.796C11.599 148.839 19.4919 160.353 19.4919 160.353L16.8919 168.06C16.8919 168.06 3.61325 172.796 4.72754 176.232C5.84183 179.668 19.4919 175.86 19.4919 175.86L26.2705 180.689C26.2705 180.689 26.7348 194.525 30.4491 194.525C34.1634 194.525 34.6277 180.689 34.6277 180.689L41.4063 175.86C41.4063 175.86 55.0563 179.668 56.1706 176.232C57.3778 172.796 44.0063 168.06 44.0063 168.06Z" fill="#DA5391" fill-opacity="0.4"/>
<path d="M39.6416 148.282C39.6416 157.567 35.5559 165.182 30.4488 165.182C25.3416 165.182 21.2559 157.66 21.2559 148.282C21.2559 138.903 27.9416 144.382 30.4488 144.382C32.9559 144.382 39.6416 138.996 39.6416 148.282Z" fill="#50112E" fill-opacity="0.4"/>
<path d="M12.8982 154.41C21.9983 157.289 28.1269 163.418 26.5483 168.153C24.9697 172.889 16.334 174.282 7.23393 171.403C-1.86611 168.525 5.46964 163.975 6.2125 161.653C6.95536 159.425 3.7982 151.532 12.8982 154.41Z" fill="#50112E" fill-opacity="0.4"/>
<path d="M10.5773 181.153C16.1487 173.632 24.0416 169.825 28.1274 172.796C32.2131 175.675 31.0059 184.125 25.3416 191.739C19.7702 199.26 17.5416 191.089 15.5916 189.696C13.6416 188.21 4.91298 188.675 10.5773 181.153Z" fill="#50112E" fill-opacity="0.4"/>
<path d="M35.927 191.553C30.3556 184.032 29.0556 175.582 33.1413 172.61C37.227 169.731 45.1199 173.446 50.6914 180.967C56.2628 188.489 47.6271 188.024 45.6771 189.417C43.7271 190.903 41.4985 199.074 35.927 191.553Z" fill="#50112E" fill-opacity="0.4"/>
<path d="M53.8479 171.217C44.7479 174.096 36.1121 172.61 34.5336 167.967C33.0478 163.232 39.1764 157.103 48.1836 154.225C57.2837 151.346 54.1265 159.239 54.8694 161.56C55.6122 163.789 62.948 168.339 53.8479 171.217Z" fill="#50112E" fill-opacity="0.4"/>
<path d="M30.5413 172.61C32.4901 172.61 34.0699 171.072 34.0699 169.174C34.0699 167.277 32.4901 165.739 30.5413 165.739C28.5925 165.739 27.0127 167.277 27.0127 169.174C27.0127 171.072 28.5925 172.61 30.5413 172.61Z" fill="#7A1A46" fill-opacity="0.4"/>
<path d="M48.0141 100.384L45.4141 92.677C45.4141 92.677 53.307 81.2555 50.3355 79.1198C47.3641 76.9841 38.6355 87.9413 38.6355 87.9413H30.2783C30.2783 87.9413 21.5497 77.077 18.5782 79.1198C15.6068 81.1627 23.4997 92.677 23.4997 92.677L20.8997 100.384C20.8997 100.384 7.62106 105.12 8.73535 108.556C9.84964 111.991 23.4997 108.184 23.4997 108.184L30.2783 113.013C30.2783 113.013 30.7426 126.849 34.4569 126.849C38.1712 126.849 38.6355 113.013 38.6355 113.013L45.4141 108.184C45.4141 108.184 59.0641 111.991 60.1784 108.556C61.3856 105.12 48.0141 100.384 48.0141 100.384Z" fill="#DA5391" fill-opacity="0.4"/>
<path d="M43.6495 80.6053C43.6495 89.8911 39.5637 97.5054 34.4566 97.5054C29.3494 97.5054 25.2637 89.9839 25.2637 80.6053C25.2637 71.2267 31.9494 76.7053 34.4566 76.7053C36.9637 76.7053 43.6495 71.3196 43.6495 80.6053Z" fill="#50112E" fill-opacity="0.4"/>
<path d="M16.9061 86.7341C26.0061 89.6127 32.1347 95.7413 30.5561 100.477C28.9775 105.213 20.3418 106.606 11.2417 103.727C2.14171 100.848 9.47745 96.2985 10.2203 93.977C10.9632 91.7484 7.80602 83.8556 16.9061 86.7341Z" fill="#50112E" fill-opacity="0.4"/>
<path d="M14.5851 113.477C20.1566 105.955 28.0494 102.148 32.1352 105.12C36.2209 107.998 35.0138 116.448 29.3495 124.063C23.778 131.584 21.5494 123.413 19.5994 122.02C17.6494 120.534 8.92079 120.998 14.5851 113.477Z" fill="#50112E" fill-opacity="0.4"/>
<path d="M39.9348 123.877C34.3634 116.355 33.0634 107.905 37.1491 104.934C41.2348 102.055 49.1277 105.77 54.6992 113.291C60.2706 120.812 51.6349 120.348 49.6849 121.741C47.7349 123.227 45.5063 131.398 39.9348 123.877Z" fill="#50112E" fill-opacity="0.4"/>
<path d="M57.8557 103.541C48.7557 106.42 40.1199 104.934 38.5414 100.291C37.0556 95.5555 43.1842 89.4269 52.1914 86.5483C61.2915 83.6697 58.1343 91.5626 58.8772 93.884C59.62 96.1126 66.9558 100.663 57.8557 103.541Z" fill="#50112E" fill-opacity="0.4"/>
<path d="M34.5491 104.934C36.4979 104.934 38.0777 103.396 38.0777 101.498C38.0777 99.6007 36.4979 98.0625 34.5491 98.0625C32.6003 98.0625 31.0205 99.6007 31.0205 101.498C31.0205 103.396 32.6003 104.934 34.5491 104.934Z" fill="#7A1A46" fill-opacity="0.4"/>
<path d="M160.959 197.775L158.359 190.068C158.359 190.068 166.252 178.646 163.281 176.51C160.309 174.375 151.581 185.332 151.581 185.332H143.224C143.224 185.332 134.495 174.468 131.524 176.51C128.552 178.553 136.445 190.068 136.445 190.068L133.845 197.775C133.845 197.775 120.566 202.511 121.681 205.946C122.795 209.382 136.445 205.575 136.445 205.575L143.224 210.403C143.224 210.403 143.688 224.239 147.402 224.239C151.116 224.239 151.581 210.403 151.581 210.403L158.359 205.575C158.359 205.575 172.009 209.382 173.124 205.946C174.331 202.511 160.959 197.775 160.959 197.775Z" fill="#DA5391" fill-opacity="0.4"/>
<path d="M156.595 177.996C156.595 187.282 152.509 194.896 147.402 194.896C142.295 194.896 138.209 187.375 138.209 177.996C138.209 168.617 144.895 174.096 147.402 174.096C149.909 174.096 156.595 168.71 156.595 177.996Z" fill="#50112E" fill-opacity="0.4"/>
<path d="M129.851 184.125C138.951 187.003 145.08 193.132 143.501 197.868C141.923 202.603 133.287 203.996 124.187 201.118C115.087 198.239 122.423 193.689 123.166 191.368C123.908 189.139 120.751 181.246 129.851 184.125Z" fill="#50112E" fill-opacity="0.4"/>
<path d="M127.53 210.868C133.102 203.346 140.995 199.539 145.08 202.51C149.166 205.389 147.959 213.839 142.295 221.453C136.723 228.975 134.495 220.803 132.545 219.41C130.595 217.925 121.866 218.389 127.53 210.868Z" fill="#50112E" fill-opacity="0.4"/>
<path d="M152.88 221.267C147.309 213.746 146.009 205.296 150.094 202.324C154.18 199.446 162.073 203.16 167.644 210.682C173.216 218.203 164.58 217.739 162.63 219.132C160.68 220.617 158.452 228.789 152.88 221.267Z" fill="#50112E" fill-opacity="0.4"/>
<path d="M170.801 200.932C161.701 203.81 153.065 202.325 151.487 197.682C150.001 192.946 156.13 186.817 165.137 183.939C174.237 181.06 171.08 188.953 171.822 191.275C172.565 193.503 179.901 198.053 170.801 200.932Z" fill="#50112E" fill-opacity="0.4"/>
<path d="M147.494 202.325C149.443 202.325 151.023 200.786 151.023 198.889C151.023 196.991 149.443 195.453 147.494 195.453C145.546 195.453 143.966 196.991 143.966 198.889C143.966 200.786 145.546 202.325 147.494 202.325Z" fill="#7A1A46" fill-opacity="0.4"/>
<path d="M219.177 157.89L216.577 150.183C216.577 150.183 224.47 138.761 221.499 136.626C218.527 134.49 209.799 145.447 209.799 145.447H201.441C201.441 145.447 192.713 134.583 189.741 136.626C186.77 138.669 194.663 150.183 194.663 150.183L192.063 157.89C192.063 157.89 178.784 162.626 179.898 166.062C181.013 169.497 194.663 165.69 194.663 165.69L201.441 170.519C201.441 170.519 201.906 184.354 205.62 184.354C209.334 184.354 209.799 170.519 209.799 170.519L216.577 165.69C216.577 165.69 230.227 169.497 231.342 166.062C232.549 162.626 219.177 157.89 219.177 157.89Z" fill="#DA5391" fill-opacity="0.4"/>
<path d="M188.069 144.24C197.169 147.119 203.298 153.247 201.719 157.983C200.141 162.719 191.505 164.112 182.405 161.233C173.305 158.354 180.641 153.804 181.383 151.483C182.126 149.254 178.969 141.361 188.069 144.24Z" fill="#50112E" fill-opacity="0.4"/>
<path d="M185.748 170.983C191.32 163.461 199.213 159.654 203.298 162.626C207.384 165.504 206.177 173.954 200.513 181.569C194.941 189.09 192.713 180.919 190.762 179.526C188.812 178.04 180.084 178.504 185.748 170.983Z" fill="#50112E" fill-opacity="0.4"/>
<path d="M194.418 83.5629L191.818 75.8557C191.818 75.8557 199.711 64.4343 196.74 62.2985C193.768 60.1628 185.04 71.12 185.04 71.12H176.683C176.683 71.12 167.954 60.2557 164.983 62.2985C162.011 64.3414 169.904 75.8557 169.904 75.8557L167.304 83.5629C167.304 83.5629 154.025 88.2986 155.14 91.7344C156.254 95.1701 169.904 91.3629 169.904 91.3629L176.683 96.1915C176.683 96.1915 177.147 110.027 180.861 110.027C184.575 110.027 185.04 96.1915 185.04 96.1915L191.818 91.3629C191.818 91.3629 205.468 95.1701 206.583 91.7344C207.79 88.2986 194.418 83.5629 194.418 83.5629Z" fill="#DA5391" fill-opacity="0.4"/>
<path d="M190.054 63.784C190.054 73.0698 185.968 80.6841 180.861 80.6841C175.754 80.6841 171.668 73.1626 171.668 63.784C171.668 54.4054 178.354 59.884 180.861 59.884C183.368 59.884 190.054 54.4983 190.054 63.784Z" fill="#50112E" fill-opacity="0.4"/>
<path d="M163.31 69.9128C172.41 72.7914 178.539 78.92 176.96 83.6558C175.382 88.3915 166.746 89.7844 157.646 86.9058C148.546 84.0272 155.882 79.4772 156.625 77.1557C157.367 74.9272 154.21 67.0343 163.31 69.9128Z" fill="#50112E" fill-opacity="0.4"/>
<path d="M160.989 96.6556C166.561 89.1342 174.454 85.327 178.539 88.2985C182.625 91.177 181.418 99.6271 175.754 107.241C170.182 114.763 167.954 106.591 166.004 105.199C164.054 103.713 155.325 104.177 160.989 96.6556Z" fill="#50112E" fill-opacity="0.4"/>
<path d="M186.339 107.055C180.768 99.534 179.468 91.0839 183.553 88.1125C187.639 85.2339 195.532 88.9482 201.103 96.4697C206.675 103.991 198.039 103.527 196.089 104.92C194.139 106.405 191.911 114.577 186.339 107.055Z" fill="#50112E" fill-opacity="0.4"/>
<path d="M180.953 88.1127C182.902 88.1127 184.482 86.5744 184.482 84.6769C184.482 82.7794 182.902 81.2412 180.953 81.2412C179.005 81.2412 177.425 82.7794 177.425 84.6769C177.425 86.5744 179.005 88.1127 180.953 88.1127Z" fill="#7A1A46" fill-opacity="0.4"/>
<path d="M159.748 135.56L157.148 127.853C157.148 127.853 165.041 116.432 162.07 114.296C159.098 112.16 150.37 123.118 150.37 123.118H142.013C142.013 123.118 133.284 112.253 130.313 114.296C127.341 116.339 135.234 127.853 135.234 127.853L132.634 135.56C132.634 135.56 119.355 140.296 120.47 143.732C121.584 147.168 135.234 143.36 135.234 143.36L142.013 148.189C142.013 148.189 142.477 162.025 146.191 162.025C149.906 162.025 150.37 148.189 150.37 148.189L157.148 143.36C157.148 143.36 170.799 147.168 171.913 143.732C173.12 140.296 159.748 135.56 159.748 135.56Z" fill="#DA5391" fill-opacity="0.4"/>
<path d="M155.384 115.782C155.384 125.067 151.298 132.682 146.191 132.682C141.084 132.682 136.998 125.16 136.998 115.782C136.998 106.403 143.684 111.882 146.191 111.882C148.698 111.882 155.384 106.496 155.384 115.782Z" fill="#50112E" fill-opacity="0.4"/>
<path d="M128.64 121.91C137.74 124.789 143.869 130.918 142.29 135.653C140.712 140.389 132.076 141.782 122.976 138.903C113.876 136.025 121.212 131.475 121.955 129.153C122.698 126.925 119.54 119.032 128.64 121.91Z" fill="#50112E" fill-opacity="0.4"/>
<path d="M126.319 148.653C131.891 141.132 139.784 137.325 143.87 140.296C147.955 143.175 146.748 151.625 141.084 159.239C135.512 166.76 133.284 158.589 131.334 157.196C129.384 155.71 120.655 156.175 126.319 148.653Z" fill="#50112E" fill-opacity="0.4"/>
<path d="M151.669 159.053C146.098 151.532 144.798 143.082 148.883 140.11C152.969 137.231 160.862 140.946 166.434 148.467C172.005 155.989 163.369 155.524 161.419 156.917C159.469 158.403 157.241 166.574 151.669 159.053Z" fill="#50112E" fill-opacity="0.4"/>
<path d="M169.59 138.717C160.49 141.596 151.854 140.11 150.276 135.467C148.79 130.732 154.919 124.603 163.926 121.725C173.026 118.846 169.869 126.739 170.612 129.06C171.354 131.289 178.69 135.839 169.59 138.717Z" fill="#50112E" fill-opacity="0.4"/>
<path d="M146.283 140.11C148.232 140.11 149.812 138.572 149.812 136.674C149.812 134.777 148.232 133.239 146.283 133.239C144.335 133.239 142.755 134.777 142.755 136.674C142.755 138.572 144.335 140.11 146.283 140.11Z" fill="#7A1A46" fill-opacity="0.4"/>
<path d="M96.8041 144.627L94.2041 136.92C94.2041 136.92 102.097 125.499 99.1256 123.363C96.1541 121.227 87.4255 132.184 87.4255 132.184H79.0683C79.0683 132.184 70.3397 121.32 67.3683 123.363C64.3968 125.406 72.2897 136.92 72.2897 136.92L69.6897 144.627C69.6897 144.627 56.4111 149.363 57.5254 152.799C58.6397 156.235 72.2897 152.427 72.2897 152.427L79.0683 157.256C79.0683 157.256 79.5326 171.092 83.2469 171.092C86.9612 171.092 87.4255 157.256 87.4255 157.256L94.2041 152.427C94.2041 152.427 107.854 156.235 108.968 152.799C110.176 149.363 96.8041 144.627 96.8041 144.627Z" fill="#DA5391" fill-opacity="0.4"/>
<path d="M92.4395 124.848C92.4395 134.134 88.3538 141.749 83.2466 141.749C78.1394 141.749 74.0537 134.227 74.0537 124.848C74.0537 115.47 80.7395 120.948 83.2466 120.948C85.7538 120.948 92.4395 115.563 92.4395 124.848Z" fill="#50112E" fill-opacity="0.4"/>
<path d="M65.6961 130.977C74.7961 133.856 80.9247 139.984 79.3461 144.72C77.7676 149.456 69.1318 150.849 60.0318 147.97C50.9317 145.092 58.2675 140.542 59.0104 138.22C59.7532 135.992 56.5961 128.099 65.6961 130.977Z" fill="#50112E" fill-opacity="0.4"/>
<path d="M63.3751 157.72C68.9466 150.199 76.8395 146.391 80.9252 149.363C85.0109 152.242 83.8038 160.692 78.1395 168.306C72.568 175.827 70.3395 167.656 68.3894 166.263C66.4394 164.777 57.7108 165.242 63.3751 157.72Z" fill="#50112E" fill-opacity="0.4"/>
<path d="M88.7249 168.12C83.1534 160.598 81.8534 152.148 85.9391 149.177C90.0249 146.298 97.9178 150.013 103.489 157.534C109.061 165.056 100.425 164.591 98.4749 165.984C96.5249 167.47 94.2963 175.641 88.7249 168.12Z" fill="#50112E" fill-opacity="0.4"/>
<path d="M106.646 147.784C97.5457 150.663 88.91 149.177 87.3314 144.534C85.8457 139.799 91.9743 133.67 100.981 130.791C110.082 127.913 106.924 135.806 107.667 138.127C108.41 140.356 115.746 144.906 106.646 147.784Z" fill="#50112E" fill-opacity="0.4"/>
<path d="M83.3391 149.177C85.2879 149.177 86.8677 147.639 86.8677 145.741C86.8677 143.844 85.2879 142.306 83.3391 142.306C81.3903 142.306 79.8105 143.844 79.8105 145.741C79.8105 147.639 81.3903 149.177 83.3391 149.177Z" fill="#7A1A46" fill-opacity="0.4"/>
</svg>
