<svg width="124" height="16" viewBox="0 0 124 16" fill="none" xmlns="http://www.w3.org/2000/svg">
<path d="M8.5 12.8589L13.753 16L12.359 10.08L17 6.09684L10.8885 5.57474L8.5 0L6.1115 5.57474L0 6.09684L4.6325 10.08L3.247 16L8.5 12.8589Z" fill="#CC9900"/>
<path d="M30.5 12.8589L35.753 16L34.359 10.08L39 6.09684L32.8885 5.57474L30.5 0L28.1115 5.57474L22 6.09684L26.6325 10.08L25.247 16L30.5 12.8589Z" fill="#CC9900"/>
<path d="M52.5 12.8589L57.753 16L56.359 10.08L61 6.09684L54.8885 5.57474L52.5 0L50.1115 5.57474L44 6.09684L48.6325 10.08L47.247 16L52.5 12.8589Z" fill="#CC9900"/>
<path d="M74.5 12.8589L79.753 16L78.359 10.08L83 6.09684L76.8885 5.57474L74.5 0L72.1115 5.57474L66 6.09684L70.6325 10.08L69.247 16L74.5 12.8589Z" fill="#CC9900"/>
<path d="M96.5 11.2842V3.45263L97.9535 6.84632L101.677 7.15789L98.8545 9.59158L99.696 13.1958L96.5 11.2842ZM105 6.09684L98.8885 5.58316L96.5 0L94.1115 5.58316L88 6.09684L92.6325 10.08L91.247 16L96.5 12.8589L101.753 16L100.359 10.08L105 6.09684Z" fill="#CC9900"/>
</svg>
