<svg width="19" height="19" viewBox="0 0 19 19" fill="none" xmlns="http://www.w3.org/2000/svg">
<path d="M9.81932 0.231874L12.5158 5.71603L18.5436 6.59566C18.6201 6.60704 18.6919 6.63957 18.7509 6.68957C18.8099 6.73957 18.8538 6.80506 18.8776 6.87868C18.9015 6.95229 18.9043 7.0311 18.8858 7.10622C18.8672 7.18135 18.8281 7.24981 18.7728 7.30389L14.4119 11.5718L15.4416 17.5993C15.4548 17.6755 15.4465 17.7539 15.4175 17.8256C15.3885 17.8973 15.34 17.9594 15.2775 18.005C15.215 18.0505 15.141 18.0776 15.0639 18.0832C14.9868 18.0888 14.9097 18.0727 14.8413 18.0367L9.44954 15.1914L4.0578 18.0375C3.98944 18.0736 3.91231 18.0899 3.83518 18.0844C3.75805 18.0788 3.68401 18.0518 3.62148 18.0063C3.55896 17.9608 3.51045 17.8986 3.48146 17.8269C3.45248 17.7552 3.44419 17.6768 3.45753 17.6006L4.48715 11.5718L0.125032 7.30389C0.0697222 7.24981 0.0306047 7.18135 0.0120846 7.10622C-0.00643551 7.0311 -0.00362258 6.95229 0.0202066 6.87868C0.0440358 6.80506 0.0879348 6.73957 0.14696 6.68957C0.205985 6.63957 0.277791 6.60704 0.354293 6.59566L6.38205 5.71603L9.07977 0.231874C9.11341 0.162379 9.16594 0.103769 9.23134 0.0627598C9.29674 0.0217505 9.37236 0 9.44954 0C9.52673 0 9.60235 0.0217505 9.66775 0.0627598C9.73314 0.103769 9.78568 0.162379 9.81932 0.231874Z" fill="#7A1A46"/>
</svg>
