<svg width="24" height="29" viewBox="0 0 24 29" fill="none" xmlns="http://www.w3.org/2000/svg">
<path d="M7.52667 25.3333C7.81471 26.2959 8.40556 27.1399 9.21144 27.7399C10.0173 28.3399 10.9953 28.664 12 28.664C13.0047 28.664 13.9827 28.3399 14.7886 27.7399C15.5944 27.1399 16.1853 26.2959 16.4733 25.3333H7.52667ZM0 24H24V20L21.3333 16V9.33333C21.3333 8.10766 21.0919 6.89399 20.6229 5.76162C20.1538 4.62925 19.4663 3.60035 18.5997 2.73367C17.733 1.86699 16.7041 1.1795 15.5717 0.710458C14.4393 0.241414 13.2257 0 12 0C10.7743 0 9.56066 0.241414 8.42829 0.710458C7.29592 1.1795 6.26702 1.86699 5.40034 2.73367C4.53366 3.60035 3.84617 4.62925 3.37712 5.76162C2.90808 6.89399 2.66667 8.10766 2.66667 9.33333V16L0 20V24Z" fill="#50112E"/>
</svg>
