<svg width="22" height="30" viewBox="0 0 22 30" fill="none" xmlns="http://www.w3.org/2000/svg">
<path d="M20.778 6.11068H3.76471C3.53787 6.10746 3.31403 6.05834 3.10668 5.96626C2.89934 5.87419 2.7128 5.74107 2.5583 5.57495C2.4038 5.40882 2.28455 5.21312 2.20774 4.99966C2.13093 4.78619 2.09815 4.55938 2.11138 4.3329C2.11027 3.88219 2.28039 3.44789 2.58733 3.11785C2.89427 2.78781 3.31511 2.58667 3.76471 2.55512H20.778C21.0138 2.55512 21.2399 2.46147 21.4066 2.29477C21.5733 2.12807 21.6669 1.90198 21.6669 1.66623C21.6669 1.43048 21.5733 1.20439 21.4066 1.03769C21.2399 0.870994 21.0138 0.777344 20.778 0.777344H3.76471C2.84345 0.809607 1.97073 1.19841 1.33062 1.86174C0.690505 2.52507 0.333033 3.41108 0.333598 4.3329C0.324999 4.47796 0.324999 4.6234 0.333598 4.76845C0.325034 4.83931 0.325034 4.91093 0.333598 4.98179V25.6662C0.333033 26.5881 0.690505 27.4741 1.33062 28.1374C1.97073 28.8007 2.84345 29.1895 3.76471 29.2218H20.778C21.0138 29.2218 21.2399 29.1281 21.4066 28.9614C21.5733 28.7947 21.6669 28.5686 21.6669 28.3329V7.06179C21.6674 6.81996 21.5758 6.58701 21.4107 6.41033C21.2456 6.23364 21.0194 6.1265 20.778 6.11068Z" fill="white"/>
</svg>
