<svg width="32" height="28" viewBox="0 0 32 28" fill="none" xmlns="http://www.w3.org/2000/svg">
<path d="M18 2.5C18 1.83696 17.7893 1.20107 17.4142 0.732233C17.0391 0.263392 16.5304 0 16 0C15.4696 0 14.9609 0.263392 14.5858 0.732233C14.2107 1.20107 14 1.83696 14 2.5C14 3.16304 14.2107 3.79893 14.5858 4.26777C14.9609 4.73661 15.4696 5 16 5C16.5304 5 17.0391 4.73661 17.4142 4.26777C17.7893 3.79893 18 3.16304 18 2.5ZM7.2 11C7.73043 11 8.23914 10.7366 8.61421 10.2678C8.98929 9.79893 9.2 9.16304 9.2 8.5C9.2 7.83696 8.98929 7.20107 8.61421 6.73223C8.23914 6.26339 7.73043 6 7.2 6C6.66957 6 6.16086 6.26339 5.78579 6.73223C5.41071 7.20107 5.2 7.83696 5.2 8.5C5.2 9.16304 5.41071 9.79893 5.78579 10.2678C6.16086 10.7366 6.66957 11 7.2 11ZM1.6 24C0.715 24 0 24.8937 0 26C0 27.1063 0.715 28 1.6 28H30.4C31.285 28 32 27.1063 32 26C32 24.8937 31.285 24 30.4 24H1.6ZM24.8 11C25.3304 11 25.8391 10.7366 26.2142 10.2678C26.5893 9.79893 26.8 9.16304 26.8 8.5C26.8 7.83696 26.5893 7.20107 26.2142 6.73223C25.8391 6.26339 25.3304 6 24.8 6C24.2696 6 23.7609 6.26339 23.3858 6.73223C23.0107 7.20107 22.8 7.83696 22.8 8.5C22.8 9.16304 23.0107 9.79893 23.3858 10.2678C23.7609 10.7366 24.2696 11 24.8 11ZM10 17.5938L11.345 20.7125C11.66 21.4438 12.385 21.7125 12.97 21.325C13.555 20.9375 13.77 20.025 13.46 19.2938L11.645 15.075C11.73 14.9688 11.805 14.85 11.86 14.7125L13.2 11.5938V15C13.2 16.1063 13.915 17 14.8 17H17.2C18.085 17 18.8 16.1063 18.8 15V11.5938L20.145 14.7125C20.205 14.85 20.275 14.9688 20.36 15.075L18.545 19.2938C18.23 20.025 18.45 20.9313 19.035 21.325C19.62 21.7188 20.345 21.4438 20.66 20.7125L22 17.5938V20C22 21.1063 22.715 22 23.6 22H26C26.885 22 27.6 21.1063 27.6 20V17.5938L28.945 20.7125C29.26 21.4438 29.985 21.7125 30.57 21.325C31.155 20.9375 31.37 20.025 31.06 19.2938L29.165 14.9C28.4 13.1187 26.91 12.0063 25.29 12.0063H24.31C23.495 12.0063 22.715 12.2875 22.04 12.7937L20.36 8.9C19.595 7.11875 18.105 6.00625 16.485 6.00625H15.51C13.89 6.00625 12.405 7.11875 11.635 8.9L9.955 12.7937C9.28 12.2875 8.5 12.0063 7.685 12.0063H6.71C5.09 12.0063 3.605 13.1187 2.835 14.9L0.945 19.2875C0.63 20.0188 0.85 20.925 1.435 21.3188C2.02 21.7125 2.745 21.4375 3.06 20.7062L4.4 17.5938V20C4.4 21.1063 5.115 22 6 22H8.4C9.285 22 10 21.1063 10 20V17.5938Z" fill="white"/>
</svg>
