<svg width="52" height="52" viewBox="0 0 52 52" fill="none" xmlns="http://www.w3.org/2000/svg">
<path d="M25.9975 21.125C26.9733 20.2458 40.6038 13.1478 37.8104 5.75247C35.2145 -1.12047 26.7783 1.96297 25.9975 5.39578C24.925 1.73791 16.7 -0.989656 14.1894 5.75572C11.3944 13.273 25.0233 20.0208 25.9975 21.125ZM18.1268 34.5792C18.6116 34.5792 19.0766 34.3866 19.4195 34.0437C19.7623 33.7009 19.9549 33.2359 19.9549 32.751C19.9549 32.2662 19.7623 31.8012 19.4195 31.4584C19.0766 31.1155 18.6116 30.9229 18.1268 30.9229C17.6419 30.9229 17.177 31.1155 16.8341 31.4584C16.4913 31.8012 16.2987 32.2662 16.2987 32.751C16.2987 33.2359 16.4913 33.7009 16.8341 34.0437C17.177 34.3866 17.6419 34.5792 18.1268 34.5792ZM16.9292 38.7205C17.0803 38.4393 16.8796 38.1363 16.6602 38.3093C15.7454 39.0406 14.7793 39.403 13.8124 39.403C12.8455 39.403 11.8795 39.0414 10.9646 38.3093C10.7444 38.1363 10.5445 38.4393 10.6957 38.7205C11.2514 39.7645 12.3743 40.6948 13.8124 40.6948C15.2505 40.6948 16.3734 39.7645 16.9292 38.7205ZM11.3262 32.751C11.3262 31.7387 10.5088 30.9229 9.49805 30.9229C8.4873 30.9229 7.66992 31.7387 7.66992 32.751C7.66992 33.2359 7.86253 33.7009 8.20537 34.0437C8.54821 34.3866 9.0132 34.5792 9.49805 34.5792C9.9829 34.5792 10.4479 34.3866 10.7907 34.0437C11.1336 33.7009 11.3262 33.2359 11.3262 32.751ZM42.5018 34.5792C42.9867 34.5792 43.4516 34.3866 43.7945 34.0437C44.1373 33.7009 44.3299 33.2359 44.3299 32.751C44.3299 32.2662 44.1373 31.8012 43.7945 31.4584C43.4516 31.1155 42.9867 30.9229 42.5018 30.9229C42.017 30.9229 41.552 31.1155 41.2091 31.4584C40.8663 31.8012 40.6737 32.2662 40.6737 32.751C40.6737 33.2359 40.8663 33.7009 41.2091 34.0437C41.552 34.3866 42.017 34.5792 42.5018 34.5792Z" fill="#50112E"/>
<path d="M44.2878 41.3944C46.1411 39.9555 47.6962 37.9949 48.0902 35.7004C49.1961 35.5249 50.375 34.801 50.375 32.5146C50.375 30.498 49.6511 29.8976 49.0384 29.7472C48.9743 21.4833 47.0072 17.9603 38.1875 17.875C29.3678 17.9603 27.4008 21.4833 27.3366 29.7464C26.7239 29.8976 26 30.4972 26 32.5146C26 34.801 27.1789 35.5249 28.2856 35.7012C28.6788 37.9957 30.2339 39.9555 32.0881 41.3953C28.6049 41.9185 26 42.9544 26 44.5047C26 42.9544 23.3951 41.9177 19.9128 41.3944C21.7661 39.9555 23.3212 37.9949 23.7153 35.7004C24.8211 35.5249 26 34.801 26 32.5146C26 30.498 25.2761 29.8976 24.6634 29.7472C24.5992 21.4833 22.6322 17.9603 13.8125 17.875C4.99281 17.9603 3.02575 21.4833 2.96156 29.7464C2.34894 29.8976 1.625 30.4972 1.625 32.5146C1.625 34.801 2.80394 35.5249 3.91056 35.7012C4.30381 37.9957 5.85894 39.9555 7.71306 41.3953C4.22987 41.9185 1.625 42.9544 1.625 44.5047V50.375H50.375V44.5047C50.375 42.9544 47.7701 41.9185 44.2878 41.3944ZM4.62556 35.2804L4.58575 34.9505L4.27131 34.9269C2.99 34.8286 2.392 34.0624 2.392 32.5146C2.392 31.1009 2.75681 30.4436 3.45394 30.5216C3.53844 31.0131 3.6335 31.356 3.74969 31.5892C4.03487 32.1555 4.57275 32.4651 4.63369 32.4984L5.29831 32.8664L5.19106 32.0808C5.18944 32.071 5.06594 31.1399 5.11144 29.8578C5.37063 25.7782 5.62413 25.2306 6.48944 25.2306C6.8835 25.2306 7.42219 25.3435 8.10712 25.4857C9.42175 25.7587 11.2206 26.1316 13.8109 26.1414C16.4011 26.1316 18.1992 25.7587 19.5146 25.4857C20.1996 25.3427 20.7383 25.2306 21.1323 25.2306C21.9976 25.2306 22.2511 25.7782 22.5103 29.8578C22.5566 31.1399 22.4323 32.0718 22.4307 32.0808L22.3234 32.8664L22.9881 32.4984C23.049 32.4651 23.5869 32.1555 23.8721 31.5892C23.9891 31.356 24.0841 31.0131 24.1678 30.5216C24.8641 30.4436 25.2297 31.1009 25.2297 32.5146C25.2297 34.0616 24.6326 34.8286 23.3504 34.9269L23.036 34.9505L22.9962 35.2804C22.4096 40.0473 16.3345 43.0893 13.8092 43.1592C11.2881 43.0893 5.21219 40.0473 4.62556 35.2804ZM25.5938 49.5625H2.418V44.5047C2.418 43.5508 4.80512 42.5531 8.67425 42.0818C10.4829 43.2591 12.4264 43.9432 13.8125 43.9717C15.1986 43.9432 17.1429 43.2591 18.9508 42.0818C22.8191 42.5531 25.5938 43.7011 25.5938 45.0003V49.5625ZM29.0006 35.2804L28.9608 34.9505L28.6463 34.9269C27.365 34.8286 26.767 34.0624 26.767 32.5146C26.767 31.1009 27.1318 30.4436 27.8289 30.5216C27.9134 31.0131 28.0085 31.356 28.1247 31.5892C28.4099 32.1555 28.9478 32.4651 29.0087 32.4984L29.6733 32.8664L29.5661 32.0808C29.5644 32.071 29.4409 31.1399 29.4864 29.8578C29.7456 25.7782 29.9991 25.2306 30.8644 25.2306C31.2585 25.2306 31.7972 25.3435 32.4821 25.4857C33.7967 25.7587 35.5956 26.1316 38.1859 26.1414C40.7761 26.1316 42.5742 25.7587 43.8896 25.4857C44.5746 25.3427 45.1133 25.2306 45.5073 25.2306C46.3726 25.2306 46.6261 25.7782 46.8853 29.8578C46.9316 31.1399 46.8073 32.0718 46.8057 32.0808L46.6984 32.8664L47.3631 32.4984C47.424 32.4651 47.9619 32.1555 48.2471 31.5892C48.3641 31.356 48.4591 31.0131 48.5428 30.5216C49.2391 30.4436 49.6047 31.1009 49.6047 32.5146C49.6047 34.0616 49.0076 34.8286 47.7254 34.9269L47.411 34.9505L47.3712 35.2804C46.7846 40.0473 40.7095 43.0893 38.1842 43.1592C35.6631 43.0893 29.5872 40.0473 29.0006 35.2804ZM49.582 49.5625H26.4062V45.0003C26.4062 43.7011 29.1809 42.5531 33.0492 42.0818C34.8579 43.2591 36.8014 43.9432 38.1875 43.9717C39.5736 43.9432 41.5179 43.2591 43.3258 42.0818C47.1949 42.5531 49.582 43.5516 49.582 44.5047V49.5625Z" fill="#50112E"/>
<path d="M41.3042 38.7204C41.4553 38.4393 41.2546 38.1362 41.0352 38.3093C40.1204 39.0405 39.1543 39.4029 38.1874 39.4029C37.2205 39.4029 36.2545 39.0414 35.3396 38.3093C35.1194 38.1362 34.9195 38.4393 35.0707 38.7204C35.6264 39.7645 36.7493 40.6948 38.1874 40.6948C39.6255 40.6948 40.7484 39.7645 41.3042 38.7204ZM35.7012 32.751C35.7012 31.7386 34.8838 30.9229 33.873 30.9229C32.8623 30.9229 32.0449 31.7386 32.0449 32.751C32.0449 33.2358 32.2375 33.7008 32.5804 34.0437C32.9232 34.3865 33.3882 34.5791 33.873 34.5791C34.3579 34.5791 34.8229 34.3865 35.1657 34.0437C35.5086 33.7008 35.7012 33.2358 35.7012 32.751Z" fill="#50112E"/>
</svg>
