<svg width="20" height="21" viewBox="0 0 20 21" fill="none" xmlns="http://www.w3.org/2000/svg">
<path d="M0.219596 0.71959C0.0927647 0.846457 0.0156082 1.01458 0.00212306 1.19347C-0.011362 1.37235 0.0397176 1.55014 0.146096 1.69459L0.219596 1.78009L4.2546 5.81509C2.2875 7.19348 0.883177 9.23473 0.299096 11.5646C0.256087 11.7557 0.289569 11.9561 0.39238 12.1228C0.495192 12.2896 0.659171 12.4095 0.84925 12.4569C1.03933 12.5044 1.24042 12.4755 1.40951 12.3766C1.57861 12.2777 1.70229 12.1165 1.7541 11.9276C2.27275 9.85975 3.55037 8.06272 5.3331 6.89359L7.1436 8.70409C6.41733 9.45905 6.01618 10.4688 6.02632 11.5163C6.03647 12.5638 6.45711 13.5656 7.19786 14.3063C7.93861 15.0471 8.94036 15.4677 9.98789 15.4779C11.0354 15.488 12.0451 15.0869 12.8001 14.3606L18.7191 20.2796C18.8529 20.4129 19.0321 20.4908 19.2209 20.4977C19.4097 20.5046 19.5941 20.44 19.7373 20.3169C19.8805 20.1937 19.972 20.0211 19.9935 19.8334C20.0149 19.6458 19.9648 19.4569 19.8531 19.3046L19.7796 19.2191L13.6671 13.1051V13.1036L12.4671 11.9051L9.5976 9.03559L6.7191 6.15709L5.5866 5.02459L1.2801 0.71959C1.13945 0.578987 0.948719 0.5 0.749846 0.5C0.550973 0.5 0.360241 0.578987 0.219596 0.71959ZM8.2041 9.76459L11.7381 13.3001C11.2661 13.7532 10.6352 14.0032 9.98095 13.9965C9.32667 13.9898 8.70109 13.7269 8.23842 13.2643C7.77575 12.8016 7.51287 12.176 7.50617 11.5217C7.49947 10.8675 7.751 10.2366 8.2041 9.76459ZM9.9996 4.00009C8.9991 4.00009 8.02859 4.14709 7.1106 4.42459L8.3481 5.66059C10.4877 5.23677 12.7084 5.65135 14.551 6.81859C16.3936 7.98584 17.7171 9.81651 18.2481 11.9321C18.2999 12.121 18.4236 12.2822 18.5927 12.3811C18.7618 12.48 18.9629 12.5089 19.1529 12.4614C19.343 12.414 19.507 12.2941 19.6098 12.1273C19.7126 11.9606 19.7461 11.7602 19.7031 11.5691C19.1605 9.40653 17.911 7.48722 16.153 6.11591C14.3949 4.74461 12.2292 3.99992 9.9996 4.00009ZM10.1946 7.51009L13.9956 11.3096C13.9469 10.3172 13.5308 9.37848 12.8282 8.67594C12.1257 7.97339 11.1869 7.5588 10.1946 7.51009Z" fill="#7D7777"/>
</svg>
