<svg width="20" height="18" viewBox="0 0 20 18" fill="none" xmlns="http://www.w3.org/2000/svg">
<path d="M0 2.33268C0 1.89065 0.175595 1.46673 0.488156 1.15417C0.800716 0.841611 1.22464 0.666016 1.66667 0.666016H18.3333C18.7754 0.666016 19.1993 0.841611 19.5118 1.15417C19.8244 1.46673 20 1.89065 20 2.33268C20 2.77471 19.8244 3.19863 19.5118 3.51119C19.1993 3.82375 18.7754 3.99935 18.3333 3.99935H1.66667C1.22464 3.99935 0.800716 3.82375 0.488156 3.51119C0.175595 3.19863 0 2.77471 0 2.33268ZM3.33333 8.99935C3.33333 8.55732 3.50893 8.1334 3.82149 7.82084C4.13405 7.50828 4.55797 7.33268 5 7.33268H15C15.442 7.33268 15.8659 7.50828 16.1785 7.82084C16.4911 8.1334 16.6667 8.55732 16.6667 8.99935C16.6667 9.44138 16.4911 9.8653 16.1785 10.1779C15.8659 10.4904 15.442 10.666 15 10.666H5C4.55797 10.666 4.13405 10.4904 3.82149 10.1779C3.50893 9.8653 3.33333 9.44138 3.33333 8.99935ZM8.33333 13.9993C7.89131 13.9993 7.46738 14.1749 7.15482 14.4875C6.84226 14.8001 6.66667 15.224 6.66667 15.666C6.66667 16.108 6.84226 16.532 7.15482 16.8445C7.46738 17.1571 7.89131 17.3327 8.33333 17.3327H11.6667C12.1087 17.3327 12.5326 17.1571 12.8452 16.8445C13.1577 16.532 13.3333 16.108 13.3333 15.666C13.3333 15.224 13.1577 14.8001 12.8452 14.4875C12.5326 14.1749 12.1087 13.9993 11.6667 13.9993H8.33333Z" fill="#606062"/>
</svg>
