<svg width="53" height="52" viewBox="0 0 53 52" fill="none" xmlns="http://www.w3.org/2000/svg">
<g clip-path="url(#clip0_219_18648)">
<path d="M24.7397 0L21.6505 8.463H0.5V50.3707H31.5132V48.4228L39.2747 51.9978L53.4225 13.2275L24.7397 0ZM3.55837 40.0118V12.0055H28.4529V40.0118H3.55837ZM24.9631 8.46517L26.3806 4.58683L49.4108 15.2165L39.9622 41.1255L31.5286 37.2298V8.46733L24.9631 8.46517Z" fill="#50112E"/>
<path d="M19.4859 17.0085C18.9925 17.1983 18.5604 17.5486 18.2442 18.0151C17.9281 18.4815 17.7422 19.0431 17.7101 19.6286C17.678 20.2141 17.8011 20.7971 18.0639 21.3037C18.3267 21.8103 18.7173 22.2178 19.1862 22.4744C19.6551 22.731 20.1811 22.8252 20.6976 22.745C21.2141 22.6648 21.6979 22.4139 22.0875 22.0241C22.4771 21.6343 22.755 21.1231 22.8861 20.5553C23.0171 19.9875 22.9953 19.3888 22.8235 18.835L22.8293 18.8566C22.7171 18.4864 22.5409 18.1449 22.3108 17.8517C22.0808 17.5584 21.8014 17.3193 21.4888 17.1481C21.1762 16.9769 20.8366 16.877 20.4896 16.8542C20.1425 16.8313 19.7948 16.886 19.4666 17.015L19.4859 17.0085Z" fill="#50112E"/>
<path d="M24.8287 20.8023L23.6943 19.5586L24.6631 18.1481L23.1223 17.7105L23.3458 15.9468L21.8243 16.4343L21.2272 14.7725L20.1218 16.0486L18.8699 14.9588L18.4809 16.6921L16.9132 16.4408L17.3465 18.1525L15.8693 18.8241L17.0037 20.0678L16.033 21.4761L17.5738 21.9138L17.3503 23.6775L18.8718 23.19L19.4689 24.8518L20.5724 23.5756L21.8262 24.6676L22.2152 22.9343L23.7829 23.1856L23.3496 21.474L24.8287 20.8023ZM21.2022 22.6158C20.7102 22.8045 20.1797 22.8251 19.6773 22.6751C19.175 22.5251 18.7233 22.2111 18.3793 21.7729C18.0352 21.3346 17.8142 20.7915 17.7441 20.2121C17.6739 19.6328 17.7578 19.043 17.9851 18.5172C18.2123 17.9913 18.5729 17.5529 19.0213 17.2572C19.4697 16.9615 19.9858 16.8217 20.5047 16.8555C21.0236 16.8892 21.522 17.095 21.9371 17.4469C22.3522 17.7988 22.6654 18.281 22.8373 18.8328L22.8431 18.8545C23.0651 19.5948 23.0195 20.4037 22.7162 21.1066C22.4128 21.8094 21.8759 22.3499 21.2215 22.6115L21.2022 22.6158ZM11.9481 21.1056L4.47168 32.2206V38.0966H23.3958L11.9481 21.1056ZM27.6656 28.3596L25.7397 25.4866L21.1175 32.3723L24.3992 37.2408L24.9674 38.0966H27.6675L27.6656 28.3596ZM40.4672 17.899C40.1318 17.8072 39.7878 17.7613 39.4426 17.7625L39.2943 17.7646H39.302C39.7377 17.4446 40.2339 17.2438 40.751 17.1784C41.268 17.1129 41.7915 17.1846 42.2795 17.3876L42.2564 17.379C42.1664 16.8941 41.9705 16.4422 41.6863 16.0638L41.6902 16.0681C41.0991 15.389 40.293 15.0007 39.4482 14.9881C38.6034 14.9755 37.7885 15.3397 37.1816 16.001C36.9775 16.1981 36.7964 16.4126 36.6346 16.6466L36.6289 16.6575C36.4921 16.4632 36.3385 16.2847 36.1705 16.1245L36.1666 16.1201C35.6779 15.6008 35.0756 15.2364 34.421 15.064C33.7664 14.8916 33.0829 14.9173 32.44 15.1386L32.4669 15.13V17.3616C33.1853 17.5501 33.8093 17.925 34.3197 18.4406L34.3158 18.4363C34.5469 18.6638 34.7511 18.9173 34.9244 19.1968L34.9321 19.2098C34.2409 18.5514 33.3521 18.215 32.4477 18.2695H32.4554V21.6776C32.9334 21.4095 33.4596 21.268 33.9937 21.2638C34.5278 21.2597 35.0556 21.3931 35.5369 21.6538L35.5157 21.643V21.7426C34.7477 24.05 33.7025 26.2283 32.4092 28.2166L32.4554 28.1408V34.1511C34.2619 32.0841 35.456 28.039 36.4998 22.046C37.0408 22.4338 37.4869 22.9678 37.7973 23.5994C38.1078 24.231 38.2727 24.9399 38.2772 25.6616C38.2816 26.3832 38.1253 27.0947 37.8226 27.731C37.5198 28.3672 37.0803 28.9081 36.5441 29.3043L36.5287 29.3151C37.0738 29.5145 37.6518 29.573 38.2197 29.4863L38.2004 29.4885C39.0691 29.3535 39.871 28.8892 40.4735 28.1723C41.076 27.4555 41.4431 26.5288 41.5143 25.5455C41.5854 24.5622 41.3564 23.5809 40.8648 22.7639C40.3733 21.9468 39.6488 21.3427 38.8109 21.0515L38.784 21.0428C39.1499 21.0471 39.5043 21.0948 39.8452 21.1858L39.8124 21.1793C40.5494 21.3378 41.2371 21.7089 41.8083 22.2561C42.3795 22.8034 42.8147 23.5082 43.0711 24.3015L43.0807 24.3361C43.4197 23.9136 43.6701 23.3915 43.7933 22.8151L43.7972 22.7913C43.9238 21.6507 43.6481 20.4997 43.0292 19.5851C42.4103 18.6706 41.4975 18.0652 40.4865 17.899H40.4672Z" fill="#50112E"/>
</g>
<defs>
<clipPath id="clip0_219_18648">
<rect width="52" height="52" fill="white" transform="translate(0.5)"/>
</clipPath>
</defs>
</svg>
