<svg width="41" height="41" viewBox="0 0 41 41" fill="none" xmlns="http://www.w3.org/2000/svg">
<path fill-rule="evenodd" clip-rule="evenodd" d="M20.9805 11.0273C16.3502 11.0273 12.625 15.1441 12.625 20.2611C12.625 24.3394 15.0272 27.802 18.3346 29.0332C18.7524 29.1101 18.8916 28.8408 18.8916 28.5715C18.8916 28.3407 18.8916 27.7635 18.8916 26.9941C16.559 27.5712 16.0716 25.7629 16.0716 25.7629C15.6887 24.6856 15.1316 24.4163 15.1316 24.4163C14.3657 23.8392 15.2013 23.8392 15.2013 23.8392C16.0368 23.9161 16.4894 24.801 16.4894 24.801C17.2205 26.2246 18.439 25.8014 18.9264 25.5705C18.9961 24.9549 19.2049 24.5702 19.4487 24.3394C17.6035 24.1085 15.6539 23.3006 15.6539 19.7609C15.6539 18.7606 15.9672 17.9142 16.5242 17.2986C16.4546 17.0678 16.1413 16.1444 16.5939 14.8363C16.5939 14.8363 17.2901 14.6054 18.8916 15.7981C19.5531 15.6058 20.2842 15.4903 20.9805 15.4903C21.6768 15.4903 22.4079 15.6058 23.0694 15.7981C24.6708 14.6054 25.3671 14.8363 25.3671 14.8363C25.8197 16.1059 25.5412 17.0293 25.4368 17.2986C25.959 17.9527 26.3071 18.7606 26.3071 19.7609C26.3071 23.3006 24.3575 24.07 22.4775 24.3009C22.7908 24.5702 23.0345 25.1473 23.0345 25.9937C23.0345 27.2249 23.0345 28.2252 23.0345 28.533C23.0345 28.7639 23.1738 29.0717 23.6264 28.9947C26.9338 27.802 29.336 24.3394 29.336 20.2611C29.336 15.1441 25.6108 11.0273 20.9805 11.0273Z" fill="white"/>
<path d="M40.9805 20.0371C40.9805 31.0828 32.0262 40.0371 20.9805 40.0371C9.93477 40.0371 0.980469 31.0828 0.980469 20.0371C0.980469 8.99141 9.93477 0.0371094 20.9805 0.0371094C32.0262 0.0371094 40.9805 8.99141 40.9805 20.0371Z" fill="#50112E" fill-opacity="0.4"/>
</svg>
