<svg width="37" height="52" viewBox="0 0 37 52" fill="none" xmlns="http://www.w3.org/2000/svg">
<path d="M17.2024 0.824707L15.8445 11.6884L9.48696 6.99727L13.4373 14.219L6.58604 13.3549L12.439 17.0351L6.75448 15.7159L6.51854 16.6048L2.78389 30.6664L2.78073 30.6808C2.31139 32.7026 2.80488 34.538 3.84681 35.8788C4.69277 36.9674 5.86548 37.7481 7.15431 38.2069L4.94316 47.7341C3.812 47.4903 2.88282 47.3358 2.14971 47.3291C0.96055 47.3184 0.277746 47.6926 0.046875 48.6876L10.7683 51.1755C11.1416 49.5673 9.73566 48.8954 6.79244 48.1633L9.00339 38.636C10.3625 38.7915 11.7593 38.607 12.998 38.0023C14.5241 37.2574 15.7755 35.8272 16.2447 33.8054L16.248 33.7908L18.7022 21.461L20.6557 30.9518L20.6592 30.9662C21.1415 32.9849 22.4023 34.4071 23.9332 35.1421C25.1759 35.7387 26.5737 35.914 27.9318 35.7496L30.2049 45.2624C27.2666 46.0135 25.8651 46.6946 26.2488 48.3003L36.9537 45.7424C36.7163 44.7489 36.0311 44.3793 34.842 44.3979C34.109 44.4092 33.1807 44.5698 32.0513 44.8209L29.7781 35.3083C31.0638 34.8411 32.2313 34.0527 33.0701 32.9588C34.1033 31.6111 34.5848 29.7726 34.1025 27.7539L34.0989 27.7393L30.0308 12.8152L25.9062 13.8009L31.1522 10.3304L23.4986 12.4288L26.8315 3.60244L20.3506 11.1945L17.2024 0.824707ZM28.6832 15.0891L30.3111 21.0617L20.3512 20.057L19.7672 17.2195L28.6832 15.0891ZM8.11724 17.9809L17.0469 20.0531L16.7964 21.3112L6.94843 22.3817L8.11724 17.9809ZM20.7523 22.0052L22.4698 22.1784C22.8417 24.4232 23.8839 30.1371 25.0491 31.2335C26.1991 32.3156 29.7783 31.5073 29.7783 31.5073C25.8897 31.81 23.6708 25.8223 22.595 22.191L30.8459 23.0233L32.2572 28.2006C32.6168 29.7114 32.2819 30.8668 31.5636 31.8038C30.8444 32.742 29.6886 33.4339 28.4263 33.7355C27.1642 34.0371 25.8203 33.9426 24.7547 33.431C23.6908 32.9202 22.8698 32.0411 22.5073 30.5319L20.7523 22.0052ZM16.408 23.263L14.3938 33.3824C14.0412 34.8943 13.2259 35.7788 12.1652 36.2966C11.103 36.8151 9.75991 36.9185 8.49587 36.6251C7.23172 36.3318 6.07125 35.6474 5.34594 34.7141C4.62169 33.782 4.27923 32.6289 4.62875 31.1161L6.42626 24.3479L8.4752 24.1253C7.63714 26.55 6.08253 31.4002 6.53605 32.8062C7.02068 34.3091 10.5452 35.3294 10.5452 35.3294C6.82799 33.1547 7.77742 27.6504 8.62908 24.1086L16.408 23.263Z" fill="#CC9900"/>
</svg>
