<svg width="54" height="48" viewBox="0 0 54 48" fill="none" xmlns="http://www.w3.org/2000/svg">
<path d="M26.3524 0.531006V3.28058C24.9202 5.45534 23.8359 14.7334 23.7716 25.9933C25.0098 24.3458 25.7892 22.478 25.7892 20.9055V19.1251C25.7861 18.5641 25.8683 18.0146 26.0202 17.4746C26.0888 17.2489 26.1668 17.0442 26.2965 16.8607C26.4263 16.6762 26.6583 16.461 27.0011 16.461C27.3428 16.461 27.5759 16.6772 27.7056 16.8607C27.8353 17.0453 27.9134 17.2489 27.9819 17.4746C28.1338 18.0146 28.2161 18.5641 28.2129 19.1251V20.9055C28.2129 22.478 28.9923 24.3458 30.2305 25.9933C30.1641 14.7334 29.0798 5.45534 27.6476 3.28058V0.531006H26.3524ZM23.5744 16.1161C22.5703 16.3429 21.6021 16.6635 20.6782 17.0738C21.6169 18.7739 21.7076 20.5163 20.8586 21.0067C20.0148 21.494 18.5541 20.5606 17.5511 18.9163C16.3297 19.8434 15.2434 20.954 14.3279 22.1953C15.8815 23.21 16.7421 24.6127 16.2601 25.429C15.7813 26.2411 14.1476 26.1821 12.5191 25.3278C11.9095 26.7252 11.4908 28.2292 11.2904 29.8017C12.3114 29.8207 13.2595 30.0528 14.0516 30.4388C15.9268 30.4071 17.5078 30.2321 18.322 29.9937C18.9074 27.2146 20.7499 24.9069 23.2073 23.7173C23.2843 21.0225 23.4056 18.4786 23.5744 16.1161ZM30.4256 16.1161C30.5933 18.4786 30.7157 21.0225 30.7916 23.7173C33.248 24.9069 35.0916 27.2146 35.6769 29.9937C36.4911 30.2321 38.0721 30.4071 39.9473 30.4388C40.7394 30.0528 41.6876 29.8218 42.7085 29.8017C42.5081 28.2292 42.0905 26.7252 41.4798 25.3278C39.8514 26.1821 38.2177 26.2411 37.7388 25.429C37.2568 24.6127 38.1185 23.2089 39.671 22.1953C38.7555 20.954 37.6692 19.8434 36.4479 18.9163C35.4449 20.5606 33.9841 21.494 33.1404 21.0067C32.2914 20.5163 32.3821 18.775 33.3207 17.0738C32.3894 16.6605 31.4197 16.3398 30.4256 16.1161ZM27 17.0232C26.6593 17.0232 26.382 17.9523 26.3577 19.1251H26.3524V20.9055C26.3524 25.274 21.1834 30.9292 16.4921 30.9292C11.0078 30.9292 3.54586 30.7763 0 34.0057V34.2705C0.993516 36.0761 2.17055 37.7689 3.49945 39.3298C4.81992 37.1055 8.94059 35.0108 14.8922 34.9687C19.71 35.0762 23.2274 37.1128 24.4645 39.2792C24.4656 39.2802 24.4635 39.2834 24.4645 39.2844C25.2735 39.5101 26.1362 39.6251 27 39.623C27.8638 39.6251 28.7265 39.5101 29.5355 39.2844C29.5365 39.2834 29.5344 39.2802 29.5355 39.2792C30.7737 37.1128 34.29 35.0762 39.1078 34.9687C45.0594 35.0098 49.179 37.1055 50.5005 39.3298C51.8295 37.7689 53.0065 36.075 54 34.2705V34.0057C50.4552 30.7763 42.9922 30.9292 37.5079 30.9292C32.8166 30.9292 27.6476 25.274 27.6476 20.9055V19.1251H27.6423C27.618 17.9523 27.3407 17.0232 27 17.0232ZM27 27.2104C29.3646 27.2104 31.282 29.1278 31.282 31.4924C31.282 33.857 29.3646 35.7797 27 35.7797C24.6354 35.7797 22.718 33.857 22.718 31.4924C22.718 29.1278 24.6354 27.2104 27 27.2104ZM27 28.0162C25.0815 28.0162 23.5237 29.5739 23.5237 31.4924C23.5237 33.4109 25.0815 34.9687 27 34.9687C28.9185 34.9687 30.4762 33.4109 30.4762 31.4924C30.4762 29.5739 28.9185 28.0162 27 28.0162ZM27 28.6637C28.562 28.6637 29.8287 29.9304 29.8287 31.4924C29.8287 33.0544 28.562 34.3211 27 34.3211C25.438 34.3211 24.1713 33.0544 24.1713 31.4924C24.1713 29.9304 25.438 28.6637 27 28.6637ZM14.8922 35.6953C13.8175 35.7027 12.6141 35.7333 11.6754 35.8704C11.7207 36.3366 11.8346 37.8353 12.4253 39.0092C13.3861 38.7392 14.3617 38.5978 15.3383 38.5978C19.6921 38.697 22.8772 42.2207 23.5923 46.4521L23.6039 46.9478C24.7008 47.1492 25.8388 47.2579 27.0011 47.2579C28.1644 47.2579 29.3013 47.1503 30.3982 46.9478L30.4098 46.4521C31.1249 42.2207 34.31 38.697 38.6638 38.5978C39.6404 38.5978 40.616 38.7392 41.5768 39.0092C42.1675 37.8353 42.2814 36.3366 42.3267 35.8704C41.388 35.7333 40.1836 35.7038 39.1099 35.6953C37.1313 35.7396 35.3985 36.1351 33.9831 36.7152C32.6605 38.4059 30.9076 39.8825 28.7539 40.2031C28.7445 40.2052 28.736 40.2073 28.7255 40.2083C28.7202 40.2094 28.7139 40.2126 28.7086 40.2136C28.1559 40.3265 27.5875 40.3824 27.0011 40.3824C26.4157 40.3824 25.8462 40.3265 25.2935 40.2136C25.2882 40.2126 25.2819 40.2094 25.2766 40.2083C25.2661 40.2062 25.2587 40.2041 25.2482 40.2031C23.0945 39.8835 21.3427 38.4059 20.019 36.7152C18.6036 36.1362 16.8697 35.7396 14.8922 35.6953Z" fill="#CC9900"/>
</svg>
