<svg width="51" height="48" viewBox="0 0 51 48" fill="none" xmlns="http://www.w3.org/2000/svg">
<path d="M36.8744 0.167247C32.4981 0.226837 28.0537 2.50401 25.1839 7.47444C20.7633 -4.94662 0.241236 -0.571772 0.715107 14.2772C0.844411 18.3261 2.46188 21.9318 4.8152 25.2097L16.0445 21.4656C13.948 21.3551 11.7249 20.4704 8.79349 18.0279C12.1742 16.0328 14.8994 15.8376 18.3844 15.5525C21.2018 14.0348 25.3943 12.7171 27.2538 13.7068C30.5216 11.7749 34.5957 9.29082 38.7103 7.73147C39.2464 9.83304 39.2727 12.4295 39.0795 14.877L37.972 13.3972C32.5446 14.617 29.8132 25.2931 37.9094 20.8524L39.02 19.0661C39.2062 20.7411 39.3777 22.2888 39.0202 23.6835C35.4303 26.2155 31.7608 28.2981 28.1174 29.9688C26.2449 31.6152 22.567 36.8844 21.4893 41.4583C23.5981 43.5752 25.1744 45.6095 25.7178 47.6382C27.8974 39.5052 51.1129 29.0947 50.648 14.2771C50.3687 5.37993 43.7016 0.0746453 36.8744 0.167458V0.167247ZM25.9025 15.7273C24.4758 15.7343 23.1831 16.0898 21.9835 16.6864C23.8005 18.7156 27.0042 19.0972 26.5218 15.7438C26.3156 15.731 26.109 15.7255 25.9024 15.7273H25.9025Z" fill="#CC9900"/>
</svg>
