<svg width="46" height="45" viewBox="0 0 46 45" fill="none" xmlns="http://www.w3.org/2000/svg">
<path d="M13.25 2.5H14.0625C14.5175 2.5 14.875 2.87375 14.875 3.3125C14.875 3.7675 14.5175 4.125 14.0625 4.125H13.25V7.50013C13.5051 7.58138 13.7521 7.70163 13.9796 7.8625L24.0254 15.0352C24.1902 15.1372 24.3324 15.2718 24.4432 15.4309C24.5539 15.5899 24.6308 15.77 24.6692 15.96C24.7076 16.1499 24.7066 16.3457 24.6663 16.5353C24.6259 16.7249 24.5472 16.9042 24.4348 17.0621C24.3224 17.22 24.1789 17.3531 24.013 17.4534C23.8471 17.5536 23.6624 17.6187 23.4704 17.6447C23.2783 17.6707 23.083 17.657 22.8964 17.6045C22.7099 17.5521 22.5361 17.4618 22.3857 17.3395L21.375 16.6212V22H42.981C43.7724 22 44.4971 22.4696 44.7945 23.1993L45.6688 25.3361C45.7367 25.5075 45.7615 25.693 45.7409 25.8763C45.7202 26.0595 45.6549 26.2349 45.5505 26.3869C45.4462 26.5389 45.306 26.663 45.1425 26.7481C44.9789 26.8332 44.7969 26.8768 44.6125 26.875H44.125V44.75H3.5V16.631L2.5055 17.3411C1.57925 18.0236 0.26625 17.3411 0.25 16.1874C0.25 15.734 0.4775 15.2952 0.85125 15.0352L10.8938 7.8625C11.1176 7.7051 11.3642 7.5829 11.625 7.50013V4.125H10.8125C10.3575 4.125 10 3.7675 10 3.3125C10 2.8575 10.3575 2.5 10.8125 2.5H11.625V1.6875C11.625 1.2325 11.9825 0.875 12.4375 0.875C12.8925 0.875 13.25 1.2325 13.25 1.6875V2.5ZM12.4375 25.25C14.6784 25.25 16.5 23.4446 16.5 21.1875C16.5 18.9466 14.6784 17.125 12.4375 17.125C11.3603 17.1259 10.3275 17.5541 9.56583 18.3158C8.80415 19.0775 8.37586 20.1103 8.375 21.1875C8.375 23.4284 10.1966 25.25 12.4375 25.25ZM26.2663 39.875H31.1413V32.5625C31.1413 31.2138 30.0525 30.125 28.7038 30.125C27.355 30.125 26.2663 31.2138 26.2663 32.5625V39.875ZM18.125 43.125V37.4375C18.125 34.3013 15.5737 31.75 12.4375 31.75C9.30125 31.75 6.75 34.3013 6.75 37.4375V43.125H18.125ZM34.3913 32.5625V39.875H39.2663V32.5625C39.2663 31.2138 38.1775 30.125 36.8288 30.125C35.48 30.125 34.3913 31.2138 34.3913 32.5625Z" fill="#CC9900"/>
<path d="M39.2656 11.9088V11.9737C39.2656 12.8837 38.9894 13.745 38.5181 14.4438C37.3481 16.0688 35.8694 17.4825 34.1794 18.5875C34.0006 18.7012 33.7894 18.75 33.5781 18.75C33.3669 18.75 33.1556 18.7012 32.9769 18.5875C31.2869 17.4825 29.8081 16.0688 28.6381 14.4438C28.1669 13.745 27.8906 12.8837 27.8906 11.9737V11.9088C27.9069 10.2837 29.2069 9 30.8156 9C31.0431 9 31.2869 9.0325 31.4981 9.0975C32.3106 9.26 32.9931 9.78 33.3831 10.4787C33.4319 10.56 33.4969 10.5925 33.5781 10.5925C33.6594 10.5925 33.7244 10.56 33.7731 10.4787C34.1631 9.78 34.8456 9.26 35.6581 9.0975C35.8694 9.0325 36.1131 9 36.3406 9C37.9494 9 39.2494 10.2837 39.2656 11.9088Z" fill="#CC9900"/>
</svg>
