<svg width="47" height="45" viewBox="0 0 47 45" fill="none" xmlns="http://www.w3.org/2000/svg">
<path d="M13.75 2.5H14.5625C15.0175 2.5 15.375 2.87375 15.375 3.3125C15.375 3.7675 15.0175 4.125 14.5625 4.125H13.75V7.50013C14.0051 7.58138 14.2521 7.70163 14.4796 7.8625L24.5254 15.0352C24.6902 15.1372 24.8324 15.2718 24.9432 15.4309C25.0539 15.5899 25.1308 15.77 25.1692 15.96C25.2076 16.1499 25.2066 16.3457 25.1663 16.5353C25.1259 16.7249 25.0472 16.9042 24.9348 17.0621C24.8224 17.22 24.6789 17.3531 24.513 17.4534C24.3471 17.5536 24.1624 17.6187 23.9704 17.6447C23.7783 17.6707 23.583 17.657 23.3964 17.6045C23.2099 17.5521 23.0361 17.4618 22.8857 17.3395L21.875 16.6212V22H43.481C44.2724 22 44.9971 22.4696 45.2945 23.1993L46.1688 25.3361C46.2367 25.5075 46.2615 25.693 46.2409 25.8763C46.2202 26.0595 46.1549 26.2349 46.0505 26.3869C45.9462 26.5389 45.806 26.663 45.6425 26.7481C45.4789 26.8332 45.2969 26.8768 45.1125 26.875H44.625V44.75H4V16.631L3.0055 17.3411C2.07925 18.0236 0.76625 17.3411 0.75 16.1874C0.75 15.734 0.9775 15.2952 1.35125 15.0352L11.3938 7.8625C11.6176 7.7051 11.8642 7.5829 12.125 7.50013V4.125H11.3125C10.8575 4.125 10.5 3.7675 10.5 3.3125C10.5 2.8575 10.8575 2.5 11.3125 2.5H12.125V1.6875C12.125 1.2325 12.4825 0.875 12.9375 0.875C13.3925 0.875 13.75 1.2325 13.75 1.6875V2.5ZM12.9375 25.25C15.1784 25.25 17 23.4446 17 21.1875C17 18.9466 15.1784 17.125 12.9375 17.125C11.8603 17.1259 10.8275 17.5541 10.0658 18.3158C9.30415 19.0775 8.87586 20.1103 8.875 21.1875C8.875 23.4284 10.6966 25.25 12.9375 25.25ZM26.7663 39.875H31.6413V32.5625C31.6413 31.2138 30.5525 30.125 29.2038 30.125C27.855 30.125 26.7663 31.2138 26.7663 32.5625V39.875ZM18.625 43.125V37.4375C18.625 34.3013 16.0737 31.75 12.9375 31.75C9.80125 31.75 7.25 34.3013 7.25 37.4375V43.125H18.625ZM34.8913 32.5625V39.875H39.7663V32.5625C39.7663 31.2138 38.6775 30.125 37.3288 30.125C35.98 30.125 34.8913 31.2138 34.8913 32.5625Z" fill="#50112E"/>
<path d="M39.7666 11.9088V11.9737C39.7666 12.8837 39.4903 13.745 39.0191 14.4438C37.8491 16.0688 36.3703 17.4825 34.6803 18.5875C34.5016 18.7012 34.2904 18.75 34.0791 18.75C33.8679 18.75 33.6566 18.7012 33.4778 18.5875C31.7879 17.4825 30.3091 16.0688 29.1391 14.4438C28.6679 13.745 28.3916 12.8837 28.3916 11.9737V11.9088C28.4079 10.2837 29.7079 9 31.3166 9C31.5441 9 31.7879 9.0325 31.9991 9.0975C32.8116 9.26 33.4941 9.78 33.8841 10.4787C33.9329 10.56 33.9979 10.5925 34.0791 10.5925C34.1604 10.5925 34.2253 10.56 34.2741 10.4787C34.6641 9.78 35.3466 9.26 36.1591 9.0975C36.3704 9.0325 36.6141 9 36.8416 9C38.4503 9 39.7504 10.2837 39.7666 11.9088Z" fill="#50112E"/>
</svg>
