<svg width="41" height="41" viewBox="0 0 41 41" fill="none" xmlns="http://www.w3.org/2000/svg">
<circle cx="20.9805" cy="20.0371" r="20" fill="#50112E" fill-opacity="0.4"/>
<path d="M20.9801 12.1227C23.3123 12.1227 23.5885 12.1324 24.5099 12.1788C25.0638 12.1863 25.6125 12.2987 26.1321 12.5111C26.5088 12.6717 26.851 12.9177 27.1366 13.2333C27.4221 13.5488 27.6447 13.927 27.79 14.3434C27.9823 14.9176 28.084 15.5239 28.0908 16.1361C28.1324 17.1543 28.1415 17.4595 28.1415 20.0369C28.1415 22.6143 28.1328 22.9195 28.0908 23.9377C28.084 24.5499 27.9823 25.1562 27.79 25.7304C27.6447 26.1468 27.4221 26.5249 27.1366 26.8405C26.851 27.1561 26.5088 27.4021 26.1321 27.5627C25.6125 27.7751 25.0638 27.8875 24.5099 27.895C23.5889 27.941 23.3127 27.9511 20.9801 27.9511C18.6474 27.9511 18.3712 27.9414 17.4503 27.895C16.8964 27.8875 16.3477 27.7751 15.8281 27.5627C15.4513 27.4021 15.1092 27.1561 14.8236 26.8405C14.538 26.5249 14.3154 26.1468 14.1701 25.7304C13.9779 25.1562 13.8762 24.5499 13.8694 23.9377C13.8278 22.9195 13.8187 22.6143 13.8187 20.0369C13.8187 17.4595 13.8274 17.1543 13.8694 16.1361C13.8762 15.5239 13.9779 14.9176 14.1701 14.3434C14.3154 13.927 14.538 13.5488 14.8236 13.2333C15.1092 12.9177 15.4513 12.6717 15.8281 12.5111C16.3477 12.2987 16.8964 12.1863 17.4503 12.1788C18.3717 12.1328 18.6479 12.1227 20.9801 12.1227ZM20.9801 10.3833C18.6092 10.3833 18.3105 10.3943 17.3788 10.4412C16.6538 10.4572 15.9365 10.6089 15.2574 10.8899C14.6749 11.1324 14.1473 11.5125 13.7113 12.0036C13.2665 12.4856 12.9223 13.069 12.7027 13.7132C12.4484 14.4636 12.3111 15.2563 12.2967 16.0575C12.2551 17.0863 12.2451 17.4163 12.2451 20.0364C12.2451 22.6566 12.2551 22.9866 12.2975 24.0163C12.3119 24.8175 12.4492 25.6102 12.7035 26.3606C12.9229 27.0047 13.2668 27.5881 13.7113 28.0701C14.1475 28.5614 14.6754 28.9415 15.2583 29.1839C15.9373 29.4649 16.6546 29.6166 17.3796 29.6326C18.3113 29.6785 18.6088 29.6905 20.9809 29.6905C23.3531 29.6905 23.6505 29.6795 24.5822 29.6326C25.3072 29.6166 26.0245 29.4649 26.7036 29.1839C27.2837 28.9354 27.8104 28.5559 28.2502 28.0696C28.69 27.5833 29.033 27.0009 29.2575 26.3597C29.5118 25.6092 29.6491 24.8166 29.6635 24.0154C29.7051 22.9866 29.7151 22.6566 29.7151 20.0364C29.7151 17.4163 29.7051 17.0863 29.6627 16.0566C29.6482 15.2554 29.511 14.4627 29.2567 13.7123C29.0373 13.0682 28.6934 12.4847 28.2488 12.0027C27.8127 11.5115 27.2848 11.1314 26.7019 10.8889C26.0228 10.6079 25.3055 10.4562 24.5806 10.4403C23.6497 10.3943 23.351 10.3833 20.9801 10.3833Z" fill="white"/>
<path d="M20.9788 15.0796C20.0916 15.0796 19.2244 15.3703 18.4867 15.915C17.7491 16.4597 17.1741 17.2339 16.8346 18.1397C16.4951 19.0455 16.4063 20.0422 16.5794 21.0038C16.7524 21.9654 17.1796 22.8486 17.807 23.5419C18.4343 24.2352 19.2336 24.7073 20.1037 24.8986C20.9738 25.0898 21.8757 24.9917 22.6954 24.6165C23.515 24.2413 24.2156 23.6059 24.7084 22.7907C25.2013 21.9755 25.4644 21.0171 25.4644 20.0367C25.4644 18.722 24.9918 17.4611 24.1506 16.5315C23.3094 15.6019 22.1684 15.0796 20.9788 15.0796ZM20.9788 23.2544C20.4029 23.2544 19.84 23.0657 19.3612 22.7121C18.8823 22.3586 18.5091 21.856 18.2888 21.2681C18.0684 20.6801 18.0107 20.0331 18.1231 19.409C18.2354 18.7848 18.5127 18.2114 18.9199 17.7614C19.3271 17.3114 19.8459 17.005 20.4107 16.8808C20.9756 16.7567 21.561 16.8204 22.093 17.0639C22.6251 17.3075 23.0798 17.7199 23.3997 18.249C23.7197 18.7782 23.8904 19.4003 23.8904 20.0367C23.8904 20.8901 23.5837 21.7085 23.0376 22.312C22.4916 22.9154 21.751 23.2544 20.9788 23.2544Z" fill="white"/>
<path d="M25.6419 16.0419C26.2208 16.0419 26.6901 15.5232 26.6901 14.8835C26.6901 14.2437 26.2208 13.7251 25.6419 13.7251C25.063 13.7251 24.5938 14.2437 24.5938 14.8835C24.5938 15.5232 25.063 16.0419 25.6419 16.0419Z" fill="white"/>
</svg>
