<svg width="34" height="34" viewBox="0 0 34 34" fill="none" xmlns="http://www.w3.org/2000/svg">
<path d="M18.713 0.333496C20.588 0.338496 21.5397 0.348496 22.3613 0.371829L22.6847 0.383496C23.058 0.396829 23.4263 0.413496 23.8713 0.433496C25.6447 0.516829 26.8547 0.79683 27.9163 1.2085C29.0163 1.63183 29.943 2.20516 30.8697 3.13016C31.7172 3.96332 32.3729 4.97114 32.7913 6.0835C33.203 7.14516 33.483 8.35516 33.5663 10.1302C33.5863 10.5735 33.603 10.9418 33.6163 11.3168L33.6263 11.6402C33.6513 12.4602 33.6613 13.4118 33.6647 15.2868L33.6663 16.5302V18.7135C33.6704 19.9292 33.6576 21.1448 33.628 22.3602L33.618 22.6835C33.6047 23.0585 33.588 23.4268 33.568 23.8702C33.4847 25.6452 33.2013 26.8535 32.7913 27.9168C32.3741 29.0298 31.7182 30.0379 30.8697 30.8702C30.0363 31.7174 29.0285 32.3731 27.9163 32.7918C26.8547 33.2035 25.6447 33.4835 23.8713 33.5668C23.4759 33.5855 23.0803 33.6021 22.6847 33.6168L22.3613 33.6268C21.5397 33.6502 20.588 33.6618 18.713 33.6652L17.4697 33.6668H15.288C14.0718 33.671 12.8555 33.6582 11.6397 33.6285L11.3163 33.6185C10.9207 33.6035 10.5251 33.5863 10.1297 33.5668C8.35633 33.4835 7.14633 33.2035 6.08299 32.7918C4.97077 32.3741 3.96335 31.7182 3.13133 30.8702C2.28307 30.0373 1.6267 29.0294 1.20799 27.9168C0.796326 26.8552 0.516326 25.6452 0.432993 23.8702C0.414424 23.4747 0.397757 23.0791 0.382993 22.6835L0.37466 22.3602C0.343946 21.1449 0.330056 19.9292 0.332993 18.7135V15.2868C0.328341 14.0712 0.340565 12.8555 0.36966 11.6402L0.381326 11.3168C0.39466 10.9418 0.411326 10.5735 0.431326 10.1302C0.51466 8.35516 0.794659 7.14683 1.20633 6.0835C1.62485 4.97 2.28253 3.96187 3.13299 3.13016C3.96481 2.28262 4.97157 1.62681 6.08299 1.2085C7.14633 0.79683 8.35466 0.516829 10.1297 0.433496C10.573 0.413496 10.943 0.396829 11.3163 0.383496L11.6397 0.373496C12.855 0.343884 14.0707 0.331105 15.2863 0.335163L18.713 0.333496ZM16.9997 8.66683C14.7895 8.66683 12.6699 9.5448 11.1071 11.1076C9.5443 12.6704 8.66633 14.79 8.66633 17.0002C8.66633 19.2103 9.5443 21.3299 11.1071 22.8927C12.6699 24.4555 14.7895 25.3335 16.9997 25.3335C19.2098 25.3335 21.3294 24.4555 22.8922 22.8927C24.455 21.3299 25.333 19.2103 25.333 17.0002C25.333 14.79 24.455 12.6704 22.8922 11.1076C21.3294 9.5448 19.2098 8.66683 16.9997 8.66683ZM16.9997 12.0002C17.6563 12.0001 18.3065 12.1293 18.9131 12.3804C19.5198 12.6316 20.0711 12.9998 20.5354 13.464C20.9998 13.9283 21.3682 14.4794 21.6196 15.086C21.8709 15.6926 22.0004 16.3427 22.0005 16.9993C22.0006 17.6559 21.8714 18.3061 21.6202 18.9128C21.369 19.5195 21.0008 20.0707 20.5366 20.5351C20.0724 20.9995 19.5213 21.3679 18.9147 21.6192C18.3081 21.8706 17.6579 22.0001 17.0013 22.0002C15.6752 22.0002 14.4035 21.4734 13.4658 20.5357C12.5281 19.598 12.0013 18.3262 12.0013 17.0002C12.0013 15.6741 12.5281 14.4023 13.4658 13.4646C14.4035 12.5269 15.6752 12.0002 17.0013 12.0002M25.7513 6.16683C25.1988 6.16683 24.6689 6.38632 24.2782 6.77702C23.8875 7.16772 23.668 7.69763 23.668 8.25016C23.668 8.8027 23.8875 9.3326 24.2782 9.7233C24.6689 10.114 25.1988 10.3335 25.7513 10.3335C26.3039 10.3335 26.8338 10.114 27.2245 9.7233C27.6152 9.3326 27.8347 8.8027 27.8347 8.25016C27.8347 7.69763 27.6152 7.16772 27.2245 6.77702C26.8338 6.38632 26.3039 6.16683 25.7513 6.16683Z" fill="#50112E"/>
</svg>
