<svg width="14" height="19" viewBox="0 0 14 19" fill="none" xmlns="http://www.w3.org/2000/svg">
<path d="M7 1C3.6875 1 1 3.50885 1 6.59884C1 10.1543 5 15.7887 6.46875 17.7348C6.52972 17.8169 6.60962 17.8838 6.70195 17.9299C6.79428 17.976 6.8964 18 7 18C7.1036 18 7.20573 17.976 7.29805 17.9299C7.39038 17.8838 7.47028 17.8169 7.53125 17.7348C9 15.7895 13 10.1572 13 6.59884C13 3.50885 10.3125 1 7 1Z" stroke="#64748B" stroke-linecap="round" stroke-linejoin="round"/>
<path d="M7 9C8.10457 9 9 8.10457 9 7C9 5.89543 8.10457 5 7 5C5.89543 5 5 5.89543 5 7C5 8.10457 5.89543 9 7 9Z" stroke="#64748B" stroke-linecap="round" stroke-linejoin="round"/>
</svg>
