<svg width="32" height="32" viewBox="0 0 32 32" fill="none" xmlns="http://www.w3.org/2000/svg">
<path fill-rule="evenodd" clip-rule="evenodd" d="M5.05269 0C3.71263 0 2.42746 0.505713 1.4799 1.40589C0.532335 2.30606 0 3.52696 0 4.8V27.2C0 28.473 0.532335 29.6939 1.4799 30.5941C2.42746 31.4943 3.71263 32 5.05269 32H15.1581C16.4981 32 17.7833 31.4943 18.7309 30.5941C19.6784 29.6939 20.2108 28.473 20.2108 27.2V4.8C20.2108 3.52696 19.6784 2.30606 18.7309 1.40589C17.7833 0.505713 16.4981 0 15.1581 0H5.05269ZM22.3885 8.4688C22.7043 8.16885 23.1326 8.00034 23.5792 8.00034C24.0258 8.00034 24.4541 8.16885 24.77 8.4688L31.5069 14.8688C31.8226 15.1688 32 15.5757 32 16C32 16.4243 31.8226 16.8312 31.5069 17.1312L24.77 23.5312C24.4523 23.8227 24.0269 23.9839 23.5853 23.9803C23.1437 23.9766 22.7212 23.8084 22.409 23.5117C22.0967 23.2151 21.9196 22.8138 21.9157 22.3942C21.9119 21.9747 22.0817 21.5706 22.3885 21.2688L26.2504 17.6H11.7896C11.3429 17.6 10.9145 17.4314 10.5987 17.1314C10.2828 16.8313 10.1054 16.4243 10.1054 16C10.1054 15.5757 10.2828 15.1687 10.5987 14.8686C10.9145 14.5686 11.3429 14.4 11.7896 14.4H26.2504L22.3885 10.7312C22.0727 10.4312 21.8953 10.0243 21.8953 9.6C21.8953 9.17574 22.0727 8.76884 22.3885 8.4688Z" fill="white"/>
</svg>
