<svg width="56" height="56" viewBox="0 0 56 56" fill="none" xmlns="http://www.w3.org/2000/svg">
<path d="M34.4476 11.321C36.9727 11.8128 39.2933 13.0453 41.1125 14.861C42.9316 16.6767 44.1665 18.9928 44.6592 21.5131M34.4476 1C39.6937 1.58168 44.5857 3.92647 48.3205 7.64935C52.0552 11.3722 54.4106 16.2519 55 21.4873M52.4148 42.0778V49.8185C52.4177 50.5371 52.2702 51.2484 51.9818 51.9069C51.6934 52.5653 51.2703 53.1563 50.7398 53.6421C50.2092 54.1279 49.5829 54.4978 48.9009 54.728C48.2188 54.9582 47.4961 55.0437 46.7791 54.9791C38.824 54.1163 31.1825 51.4032 24.4688 47.0577C18.2225 43.0961 12.9267 37.8104 8.95755 31.5761C4.58851 24.8447 1.86956 17.1808 1.02098 9.20523C0.95638 8.4917 1.04134 7.77257 1.27046 7.09361C1.49957 6.41465 1.86782 5.79074 2.35176 5.26161C2.83569 4.73248 3.42472 4.30972 4.08132 4.02025C4.73793 3.73078 5.44773 3.58094 6.16554 3.58026H13.9211C15.1758 3.56794 16.3921 4.01137 17.3433 4.8279C18.2946 5.64444 18.916 6.77836 19.0915 8.01831C19.4189 10.4955 20.026 12.9278 20.9012 15.2688C21.249 16.1924 21.3243 17.1961 21.1181 18.161C20.9119 19.1259 20.4329 20.0116 19.7378 20.7132L16.4546 23.9901C20.1348 30.4499 25.4937 35.7985 31.9659 39.4717L35.2491 36.1948C35.9519 35.501 36.8394 35.0229 37.8061 34.8171C38.7729 34.6113 39.7785 34.6865 40.7038 35.0336C43.0493 35.9072 45.4863 36.5131 47.9683 36.8398C49.2241 37.0166 50.3709 37.648 51.1908 38.6137C52.0106 39.5795 52.4463 40.8123 52.4148 42.0778Z" stroke="#CC9900" stroke-width="2" stroke-linecap="round" stroke-linejoin="round"/>
</svg>
