<svg width="28" height="32" viewBox="0 0 28 32" fill="none" xmlns="http://www.w3.org/2000/svg">
<path d="M0.666992 31.8327V3.33268C0.666992 2.46185 0.928326 1.71663 1.45099 1.09702C1.97366 0.477405 2.60121 0.167071 3.33366 0.166016H24.667C25.4003 0.166016 26.0283 0.476349 26.551 1.09702C27.0737 1.71768 27.3345 2.4629 27.3337 3.33268V22.3327C27.3337 23.2035 27.0728 23.9493 26.551 24.5699C26.0292 25.1906 25.4012 25.5004 24.667 25.4993H6.00033L0.666992 31.8327ZM10.1003 19.5618L14.0003 16.7514L17.9003 19.5618L16.867 14.2973L20.3337 10.7348L15.767 10.2993L14.0003 5.31185L12.2337 10.2993L7.66699 10.7348L11.1337 14.2973L10.1003 19.5618Z" fill="white"/>
</svg>
