<svg width="30" height="30" viewBox="0 0 30 30" fill="none" xmlns="http://www.w3.org/2000/svg">
<path d="M24.333 11.0007C23.0663 11.0007 21.9663 10.6229 21.033 9.86732C20.0997 9.11176 19.4775 8.15621 19.1663 7.00065H10.7997C10.5552 7.93398 10.0943 8.73976 9.41701 9.41798C8.73967 10.0962 7.9339 10.5571 6.99967 10.8007V19.1673C8.15523 19.4784 9.11079 20.1007 9.86634 21.034C10.6219 21.9673 10.9997 23.0673 10.9997 24.334C10.9997 25.8007 10.4775 27.0562 9.43301 28.1007C8.38856 29.1451 7.13301 29.6673 5.66634 29.6673C4.19967 29.6673 2.94412 29.1451 1.89967 28.1007C0.85523 27.0562 0.333008 25.8007 0.333008 24.334C0.333008 23.0673 0.710786 21.9673 1.46634 21.034C2.2219 20.1007 3.17745 19.4784 4.33301 19.1673V10.8007C3.17745 10.4895 2.2219 9.86732 1.46634 8.93398C0.710786 8.00065 0.333008 6.91176 0.333008 5.66732C0.333008 4.20065 0.85523 2.9451 1.89967 1.90065C2.94412 0.856207 4.19967 0.333984 5.66634 0.333984C6.91079 0.333984 7.99967 0.711762 8.93301 1.46732C9.86634 2.22287 10.4886 3.17843 10.7997 4.33398H19.1663C19.4775 3.17843 20.0997 2.22287 21.033 1.46732C21.9663 0.711762 23.0663 0.333984 24.333 0.333984C25.7997 0.333984 27.0552 0.856207 28.0997 1.90065C29.1441 2.9451 29.6663 4.20065 29.6663 5.66732C29.6663 7.13398 29.1441 8.38954 28.0997 9.43398C27.0552 10.4784 25.7997 11.0007 24.333 11.0007ZM5.66634 27.0007C6.39967 27.0007 7.02767 26.734 7.55034 26.2007C8.07301 25.6673 8.3339 25.0451 8.33301 24.334C8.33301 23.6007 8.07212 22.9731 7.55034 22.4513C7.02856 21.9295 6.40056 21.6682 5.66634 21.6673C4.95523 21.6673 4.33301 21.9286 3.79967 22.4513C3.26634 22.974 2.99967 23.6015 2.99967 24.334C2.99967 25.0451 3.26634 25.6673 3.79967 26.2007C4.33301 26.734 4.95523 27.0007 5.66634 27.0007ZM5.66634 8.33398C6.39967 8.33398 7.02767 8.0731 7.55034 7.55132C8.07301 7.02954 8.3339 6.40154 8.33301 5.66732C8.33301 4.93398 8.07212 4.30643 7.55034 3.78465C7.02856 3.26287 6.40056 3.00154 5.66634 3.00065C4.95523 3.00065 4.33301 3.26198 3.79967 3.78465C3.26634 4.30732 2.99967 4.93487 2.99967 5.66732C2.99967 6.40065 3.26634 7.02865 3.79967 7.55132C4.33301 8.07398 4.95523 8.33487 5.66634 8.33398ZM24.333 29.6673C22.8663 29.6673 21.6108 29.1451 20.5663 28.1007C19.5219 27.0562 18.9997 25.8007 18.9997 24.334C18.9997 22.8673 19.5219 21.6118 20.5663 20.5673C21.6108 19.5229 22.8663 19.0007 24.333 19.0007C25.7997 19.0007 27.0552 19.5229 28.0997 20.5673C29.1441 21.6118 29.6663 22.8673 29.6663 24.334C29.6663 25.8007 29.1441 27.0562 28.0997 28.1007C27.0552 29.1451 25.7997 29.6673 24.333 29.6673ZM24.333 27.0007C25.0663 27.0007 25.6943 26.734 26.217 26.2007C26.7397 25.6673 27.0006 25.0451 26.9997 24.334C26.9997 23.6007 26.7388 22.9731 26.217 22.4513C25.6952 21.9295 25.0672 21.6682 24.333 21.6673C23.5997 21.6673 22.9721 21.9286 22.4503 22.4513C21.9286 22.974 21.6672 23.6015 21.6663 24.334C21.6663 25.0451 21.9277 25.6673 22.4503 26.2007C22.973 26.734 23.6006 27.0007 24.333 27.0007ZM24.333 8.33398C25.0663 8.33398 25.6943 8.0731 26.217 7.55132C26.7397 7.02954 27.0006 6.40154 26.9997 5.66732C26.9997 4.93398 26.7388 4.30643 26.217 3.78465C25.6952 3.26287 25.0672 3.00154 24.333 3.00065C23.5997 3.00065 22.9721 3.26198 22.4503 3.78465C21.9286 4.30732 21.6672 4.93487 21.6663 5.66732C21.6663 6.40065 21.9277 7.02865 22.4503 7.55132C22.973 8.07398 23.6006 8.33487 24.333 8.33398ZM5.66634 27.0007C4.95523 27.0007 4.33301 26.734 3.79967 26.2007C3.26634 25.6673 2.99967 25.0451 2.99967 24.334C2.99967 23.6015 3.26634 22.974 3.79967 22.4513C4.33301 21.9286 4.95523 21.6673 5.66634 21.6673C6.40056 21.6682 7.02856 21.9295 7.55034 22.4513C8.07212 22.9731 8.33301 23.6007 8.33301 24.334C8.3339 25.0451 8.07301 25.6673 7.55034 26.2007C7.02767 26.734 6.39967 27.0007 5.66634 27.0007ZM5.66634 8.33398C4.95523 8.33487 4.33301 8.07398 3.79967 7.55132C3.26634 7.02865 2.99967 6.40065 2.99967 5.66732C2.99967 4.93487 3.26634 4.30732 3.79967 3.78465C4.33301 3.26198 4.95523 3.00065 5.66634 3.00065C6.40056 3.00154 7.02856 3.26287 7.55034 3.78465C8.07212 4.30643 8.33301 4.93398 8.33301 5.66732C8.3339 6.40154 8.07301 7.02954 7.55034 7.55132C7.02767 8.0731 6.39967 8.33398 5.66634 8.33398ZM24.333 27.0007C23.6006 27.0007 22.973 26.734 22.4503 26.2007C21.9277 25.6673 21.6663 25.0451 21.6663 24.334C21.6672 23.6015 21.9286 22.974 22.4503 22.4513C22.9721 21.9286 23.5997 21.6673 24.333 21.6673C25.0672 21.6682 25.6952 21.9295 26.217 22.4513C26.7388 22.9731 26.9997 23.6007 26.9997 24.334C27.0006 25.0451 26.7397 25.6673 26.217 26.2007C25.6943 26.734 25.0663 27.0007 24.333 27.0007ZM24.333 8.33398C23.6006 8.33487 22.973 8.07398 22.4503 7.55132C21.9277 7.02865 21.6663 6.40065 21.6663 5.66732C21.6672 4.93487 21.9286 4.30732 22.4503 3.78465C22.9721 3.26198 23.5997 3.00065 24.333 3.00065C25.0672 3.00154 25.6952 3.26287 26.217 3.78465C26.7388 4.30643 26.9997 4.93398 26.9997 5.66732C27.0006 6.40154 26.7397 7.02954 26.217 7.55132C25.6943 8.0731 25.0663 8.33398 24.333 8.33398Z" fill="white"/>
</svg>
