<svg width="32" height="32" viewBox="0 0 32 32" fill="none" xmlns="http://www.w3.org/2000/svg">
<path d="M9.2 3H16.4C16.62 3 16.8 3.225 16.8 3.5V6H8.8V3.5C8.8 3.225 8.98 3 9.2 3ZM6.4 3.5V6H3.2C1.435 6 0 7.79375 0 10V16H18.01C19.625 13.5562 22.065 12 24.8 12C25.07 12 25.335 12.0125 25.6 12.0437V10C25.6 7.79375 24.165 6 22.4 6H19.2V3.5C19.2 1.56875 17.945 0 16.4 0H9.2C7.655 0 6.4 1.56875 6.4 3.5ZM16 22H11.2C10.315 22 9.6 21.1063 9.6 20V18H0V26C0 28.2062 1.435 30 3.2 30H18.01C16.755 28.1 16 25.6562 16 23C16 22.6625 16.01 22.3312 16.035 22H16ZM32 23C32 20.6131 31.2414 18.3239 29.8912 16.636C28.5409 14.9482 26.7096 14 24.8 14C22.8904 14 21.0591 14.9482 19.7088 16.636C18.3586 18.3239 17.6 20.6131 17.6 23C17.6 25.3869 18.3586 27.6761 19.7088 29.364C21.0591 31.0518 22.8904 32 24.8 32C26.7096 32 28.5409 31.0518 29.8912 29.364C31.2414 27.6761 32 25.3869 32 23ZM24.8 18C25.24 18 25.6 18.45 25.6 19V22H27.2C27.64 22 28 22.45 28 23C28 23.55 27.64 24 27.2 24H24.8C24.36 24 24 23.55 24 23V19C24 18.45 24.36 18 24.8 18Z" fill="white"/>
</svg>
