<svg width="13" height="11" viewBox="0 0 13 11" fill="none" xmlns="http://www.w3.org/2000/svg">
<path d="M6.5 7.66797C7.39746 7.66797 8.125 6.94043 8.125 6.04297C8.125 5.14551 7.39746 4.41797 6.5 4.41797C5.60254 4.41797 4.875 5.14551 4.875 6.04297C4.875 6.94043 5.60254 7.66797 6.5 7.66797Z" stroke="#50112E"/>
<path d="M5.29609 10.375H7.70326C9.3938 10.375 10.2393 10.375 10.8465 9.9769C11.1085 9.80518 11.3342 9.58358 11.5106 9.32473C11.9163 8.7289 11.9163 7.89853 11.9163 6.23886C11.9163 4.57865 11.9163 3.74882 11.5106 3.15298C11.3342 2.89413 11.1086 2.67253 10.8465 2.50082C10.4565 2.24461 9.96797 2.15307 9.21992 2.12057C8.86297 2.12057 8.55584 1.85515 8.48597 1.51119C8.43257 1.25925 8.29382 1.03346 8.09318 0.871999C7.89253 0.710536 7.64229 0.623297 7.38476 0.625025H5.61459C5.07942 0.625025 4.61847 0.996067 4.51338 1.51119C4.44351 1.85515 4.13638 2.12057 3.77942 2.12057C3.03192 2.15307 2.54334 2.24515 2.1528 2.50082C1.89097 2.67256 1.6655 2.89416 1.48926 3.15298C1.08301 3.74882 1.08301 4.57865 1.08301 6.23886C1.08301 7.89853 1.08301 8.72836 1.48872 9.32473C1.66422 9.58257 1.88955 9.80411 2.1528 9.9769C2.76001 10.375 3.60555 10.375 5.29609 10.375Z" stroke="#50112E"/>
<path d="M10.2917 4.41797H9.75" stroke="#50112E" stroke-linecap="round"/>
</svg>
