<svg width="41" height="41" viewBox="0 0 41 41" fill="none" xmlns="http://www.w3.org/2000/svg">
<circle cx="20.9805" cy="20.0371" r="20" fill="#50112E" fill-opacity="0.4"/>
<path d="M28.1855 15.0943C27.6452 15.3597 27.0749 15.5256 26.4746 15.6251C27.0749 15.227 27.5552 14.5967 27.7653 13.8338C27.195 14.1987 26.5646 14.464 25.8742 14.6299C25.3339 13.9996 24.5535 13.6016 23.713 13.6016C22.0921 13.6016 20.7713 15.0611 20.7713 16.8524C20.7713 17.1178 20.8013 17.35 20.8614 17.5822C18.43 17.4495 16.2387 16.1558 14.7679 14.1655C14.5278 14.6631 14.3777 15.1938 14.3777 15.7909C14.3777 16.9188 14.888 17.914 15.6984 18.5111C15.2182 18.4779 14.7679 18.3452 14.3477 18.113V18.1462C14.3477 19.7384 15.3682 21.0653 16.719 21.3639C16.4789 21.4302 16.2087 21.4634 15.9386 21.4634C15.7585 21.4634 15.5484 21.4302 15.3682 21.3971C15.7585 22.6908 16.8391 23.6528 18.1298 23.6528C17.1092 24.5152 15.8485 25.046 14.4677 25.046C14.2276 25.046 13.9875 25.046 13.7773 25.0128C15.0981 25.9417 16.629 26.4724 18.3099 26.4724C23.743 26.4724 26.7147 21.4966 26.7147 17.1842C26.7147 17.0515 26.7147 16.8856 26.7147 16.7529C27.285 16.3217 27.7953 15.7578 28.1855 15.0943Z" fill="white"/>
</svg>
