<svg width="22" height="21" viewBox="0 0 22 21" fill="none" xmlns="http://www.w3.org/2000/svg">
<path d="M11.0002 10.5002V19.5002M11.0002 10.5002L8.50021 12.5002M11.0002 10.5002L13.5002 12.5002M4.03421 7.61719C3.08842 7.85518 2.26208 8.43035 1.71046 9.23463C1.15883 10.0389 0.919888 11.0169 1.03851 11.985C1.15714 12.953 1.62517 13.8444 2.35467 14.4917C3.08417 15.139 4.02494 15.4976 5.00021 15.5002H6.00021" stroke="#AFABAB" stroke-width="2" stroke-linecap="round" stroke-linejoin="round"/>
<path d="M14.8306 5.63772C14.4889 4.28429 13.6452 3.11146 12.4708 2.35698C11.2963 1.60249 9.87892 1.32281 8.5059 1.57462C7.13289 1.82643 5.90699 2.5909 5.07671 3.71306C4.24643 4.83521 3.87391 6.23109 4.03465 7.61772C4.03465 7.61772 4.18765 8.49972 4.50065 8.99972" stroke="#AFABAB" stroke-width="2" stroke-linecap="round" stroke-linejoin="round"/>
<path d="M16 15.5C16.706 15.4995 17.404 15.3495 18.0479 15.0599C18.6917 14.7702 19.267 14.3475 19.7357 13.8195C20.2045 13.2915 20.5561 12.6702 20.7674 11.9965C20.9787 11.3229 21.045 10.6121 20.9618 9.91094C20.8786 9.20982 20.6479 8.53427 20.2848 7.92874C19.9217 7.32321 19.4345 6.80145 18.8552 6.39778C18.276 5.99412 17.6178 5.71772 16.924 5.58676C16.2302 5.4558 15.5166 5.47327 14.83 5.638L13.5 6" stroke="#AFABAB" stroke-width="2" stroke-linecap="round" stroke-linejoin="round"/>
</svg>
