<svg width="46" height="45" viewBox="0 0 46 45" fill="none" xmlns="http://www.w3.org/2000/svg">
<path d="M32.375 39.375V35.625C32.375 33.6359 31.5848 31.7282 30.1783 30.3217C28.7718 28.9152 26.8641 28.125 24.875 28.125H9.875C7.88588 28.125 5.97822 28.9152 4.5717 30.3217C3.16518 31.7282 2.375 33.6359 2.375 35.625V39.375" stroke="#CC9900" stroke-width="2" stroke-linecap="round" stroke-linejoin="round"/>
<path d="M17.375 20.625C21.5171 20.625 24.875 17.2671 24.875 13.125C24.875 8.98286 21.5171 5.625 17.375 5.625C13.2329 5.625 9.875 8.98286 9.875 13.125C9.875 17.2671 13.2329 20.625 17.375 20.625Z" stroke="#CC9900" stroke-width="2" stroke-linecap="round" stroke-linejoin="round"/>
<path d="M43.625 39.3749V35.6249C43.6238 33.9631 43.0707 32.3488 42.0526 31.0355C41.0345 29.7221 39.609 28.7841 38 28.3687" stroke="#CC9900" stroke-width="2" stroke-linecap="round" stroke-linejoin="round"/>
<path d="M30.5 5.86914C32.1133 6.28221 33.5432 7.22045 34.5643 8.53597C35.5855 9.85149 36.1397 11.4694 36.1397 13.1348C36.1397 14.8001 35.5855 16.418 34.5643 17.7336C33.5432 19.0491 32.1133 19.9873 30.5 20.4004" stroke="#CC9900" stroke-width="2" stroke-linecap="round" stroke-linejoin="round"/>
</svg>
