<svg width="34" height="34" viewBox="0 0 34 34" fill="none" xmlns="http://www.w3.org/2000/svg">
<path d="M1 14.9636C1 10.0759 1 7.63204 1.80487 5.76517C2.51286 4.12303 3.64257 2.78793 5.03207 1.95122C6.61173 1 9.91038 1 14.0462 1H21.1846C25.3204 1 27.3883 1 28.9679 1.95122C30.3574 2.78793 31.4871 4.12303 32.1951 5.76517C33 7.63204 33 10.0759 33 14.9636V19.0364C33 23.9241 33 26.368 32.1951 28.2348C31.4871 29.877 30.3574 31.2121 28.9679 32.0488C27.3883 33 25.3204 33 21.1846 33H14.0462C9.91038 33 6.61173 33 5.03207 32.0488C3.64257 31.2121 2.51286 29.877 1.80487 28.2348C1 26.368 1 23.9241 1 19.0364V14.9636Z" fill="white"/>
<path d="M33 11.1818H24.3846C21.6657 11.1818 19.4615 13.7867 19.4615 17C19.4615 20.2133 21.6657 22.8182 24.3846 22.8182H33M14.0462 33H21.1846C25.3204 33 27.3883 33 28.9679 32.0488C30.3574 31.2121 31.4871 29.877 32.1951 28.2348C33 26.368 33 23.9241 33 19.0364V14.9636C33 10.0759 33 7.63204 32.1951 5.76517C31.4871 4.12303 30.3574 2.78793 28.9679 1.95122C27.3883 1 25.3204 1 21.1846 1H14.0462C9.91038 1 6.61173 1 5.03207 1.95122C3.64257 2.78793 2.51286 4.12303 1.80487 5.76517C1 7.63204 1 10.0759 1 14.9636V19.0364C1 23.9241 1 26.368 1.80487 28.2348C2.51286 29.877 3.64257 31.2121 5.03207 32.0488C6.61173 33 9.91038 33 14.0462 33Z" stroke="#A4235E" stroke-width="2"/>
</svg>
