<svg width="34" height="34" viewBox="0 0 34 34" fill="none" xmlns="http://www.w3.org/2000/svg">
<path fill-rule="evenodd" clip-rule="evenodd" d="M17.0007 0.333496C7.79565 0.333496 0.333984 7.79516 0.333984 17.0002C0.333984 20.1502 1.20898 23.1002 2.73065 25.6135L1.24398 30.6668C1.15863 30.957 1.15301 31.2647 1.22773 31.5578C1.30244 31.8509 1.45473 32.1184 1.66858 32.3322C1.88244 32.5461 2.14995 32.6984 2.44301 32.7731C2.73607 32.8478 3.04385 32.8422 3.33398 32.7568L8.38732 31.2702C10.9851 32.842 13.9644 33.671 17.0007 33.6668C26.2057 33.6668 33.6673 26.2052 33.6673 17.0002C33.6673 7.79516 26.2057 0.333496 17.0007 0.333496ZM13.2307 20.7718C16.6023 24.1418 19.8207 24.5868 20.9573 24.6285C22.6856 24.6918 24.369 23.3718 25.024 21.8402C25.1067 21.6496 25.1367 21.4404 25.1109 21.2343C25.0851 21.0282 25.0044 20.8328 24.8773 20.6685C23.964 19.5018 22.729 18.6635 21.5223 17.8302C21.2704 17.656 20.9608 17.5861 20.6584 17.6352C20.3561 17.6843 20.0845 17.8485 19.9007 18.0935L18.9007 19.6185C18.8481 19.7005 18.7662 19.7593 18.6716 19.7828C18.5771 19.8064 18.4772 19.7929 18.3923 19.7452C17.714 19.3568 16.7257 18.6968 16.0157 17.9868C15.3057 17.2768 14.6857 16.3335 14.3373 15.6985C14.2941 15.6178 14.2816 15.5242 14.3022 15.4351C14.3227 15.3459 14.3749 15.2672 14.449 15.2135L15.989 14.0702C16.2088 13.8791 16.3506 13.6138 16.3875 13.3249C16.4243 13.036 16.3537 12.7437 16.189 12.5035C15.4423 11.4102 14.5723 10.0202 13.3107 9.0985C13.1478 8.9805 12.9571 8.90693 12.7572 8.88501C12.5573 8.8631 12.3552 8.89359 12.1707 8.9735C10.6373 9.63016 9.31065 11.3135 9.37398 13.0452C9.41565 14.1818 9.86065 17.4002 13.2307 20.7718Z" fill="#50112E"/>
</svg>
