<svg width="53" height="52" viewBox="0 0 53 52" fill="none" xmlns="http://www.w3.org/2000/svg">
<g clip-path="url(#clip0_219_18642)">
<path d="M22.188 0.187988C18.962 0.187988 16.688 2.47199 16.688 5.68799C16.688 9.22799 19.484 11.53 22.188 13.75C23.072 14.476 23.936 15.206 24.75 16H10.5C7.868 16 5.682 17.702 4.874 20.062C4.874 20.062 5.282 24 11.5 24C17.28 24 17.494 21.06 17.5 20.938C17.5134 20.6828 17.625 20.4427 17.8113 20.2679C17.9977 20.093 18.2445 19.9971 18.5 20C18.7625 20.0085 19.012 20.1166 19.1977 20.3023C19.3834 20.488 19.4915 20.7375 19.5 21C19.508 21.102 19.79 24 26.5 24C33.21 24 33.49 21.06 33.5 20.938C33.522 20.6749 33.6447 20.4304 33.8426 20.2556C34.0405 20.0809 34.2982 19.9893 34.562 20C34.8181 20.0109 35.0597 20.1217 35.235 20.3086C35.4103 20.4956 35.5055 20.7438 35.5 21C35.504 21.106 35.68 24 41.5 24C47.906 24 48.126 20.062 48.126 20.062C47.318 17.704 45.128 16 42.5 16H28.25C29.0711 15.2133 29.9259 14.4626 30.812 13.75C33.514 11.53 36.312 9.22599 36.312 5.68799C36.312 2.47199 34.04 0.187988 30.812 0.187988C28.952 0.187988 27.378 1.51999 26.5 2.43799C25.626 1.51799 24.046 0.187988 22.188 0.187988ZM18.56 23.438C17.584 24.71 15.584 26 11.5 26C7.49 26 5.498 24.75 4.5 23.5V32H48.5V23.5C47.502 24.74 45.504 26 41.5 26C37.4 26 35.412 24.706 34.438 23.438C33.33 24.704 31.07 26 26.5 26C21.914 26 19.664 24.71 18.562 23.438H18.56ZM6.5 34C3.868 34 1.682 35.702 0.874 38.062C0.876 38.062 1.282 42 7.5 42C13.28 42 15.494 39.06 15.5 38.938C15.5134 38.6828 15.625 38.4427 15.8113 38.2679C15.9977 38.093 16.2445 37.9971 16.5 38C16.7625 38.0085 17.012 38.1166 17.1977 38.3023C17.3834 38.488 17.4915 38.7375 17.5 39C17.508 39.102 19.79 42 26.5 42C33.21 42 35.49 39.06 35.5 38.938C35.522 38.6749 35.6447 38.4304 35.8426 38.2556C36.0405 38.0809 36.2982 37.9893 36.562 38C36.8181 38.0109 37.0597 38.1217 37.235 38.3086C37.4103 38.4956 37.5055 38.7438 37.5 39C37.504 39.106 39.68 42 45.5 42C51.906 42 52.126 38.062 52.126 38.062C51.318 35.704 49.128 34 46.5 34H6.5ZM16.562 41.438C15.584 42.71 11.584 44 7.5 44C3.49 44 1.498 42.75 0.5 41.5V48C0.5 51.312 3.188 52 6.5 52H46.5C49.812 52 52.5 51.312 52.5 48V41.5C51.502 42.74 49.504 44 45.5 44C41.4 44 37.412 42.706 36.438 41.438C35.33 42.704 31.07 44 26.5 44C21.914 44 17.664 42.71 16.562 41.438Z" fill="#50112E"/>
</g>
<defs>
<clipPath id="clip0_219_18642">
<rect width="52" height="52" fill="white" transform="translate(0.5)"/>
</clipPath>
</defs>
</svg>
